<svg width="930" height="1281" viewBox="0 0 930 1281" fill="none" xmlns="http://www.w3.org/2000/svg">
<path d="M525.06 0.815002C536.585 6.24365 546.74 12.578 557.133 19.9323C560.277 22.1294 563.421 24.3265 566.661 26.5903C573.214 31.1951 579.757 35.8141 586.289 40.4473C611.139 57.7562 628.193 67.22 659.001 64.5392C671.07 65.1855 671.07 65.1855 682.808 70.07C697.019 86.9916 705.614 108.006 714.116 128.224C717.66 136.474 717.66 136.474 725.13 147.02C729.098 145.909 733.066 144.798 737.154 143.653C752.063 143.173 752.063 143.173 758.991 148.057C764.673 153.847 769.942 160.036 775.148 166.258C777.687 154.83 780.226 143.403 782.843 131.63C798.311 145.552 809.042 161.96 820.356 179.243C822.305 182.1 824.254 184.956 826.262 187.9C840.626 209.814 840.626 209.814 840.224 224.571C839.466 235.318 839.466 235.318 845.154 241.368C851.873 247.649 858.817 253.392 866.045 259.078C868.42 261.047 870.796 263.016 873.244 265.045C884.534 274.291 894.207 281.581 907.496 287.905C919.324 298.738 919.365 301.961 920.857 317.452C921.158 326.045 921.313 334.644 921.353 343.243C921.465 350.277 921.465 350.277 921.58 357.453C921.73 372.278 921.69 387.091 921.593 401.917C921.574 407.082 921.556 412.247 921.54 417.412C921.496 429.882 921.433 442.351 921.353 454.82C907.386 454.82 893.42 454.82 879.03 454.82C879.03 475.135 879.03 495.45 879.03 516.38C870.142 516.38 861.255 516.38 852.098 516.38C852.098 545.583 852.098 574.785 852.098 604.873C847.019 604.873 841.94 604.873 836.708 604.873C836.708 644.233 836.708 683.592 836.708 724.145C840.517 725.415 844.326 726.685 848.25 727.993C860.689 746.234 857.978 768.501 855.945 789.553C846.35 829.783 811.441 867.435 784.766 898.004C770.987 914.616 767.407 928.437 766.085 949.81C763.605 958.843 763.605 958.843 755.91 965.786C740.382 971.973 726.992 971.647 710.462 971.107C707.429 971.055 704.396 971.002 701.271 970.949C693.833 970.814 686.396 970.607 678.96 970.385C681.672 953.137 685.496 937.056 690.503 920.368C688.757 923.463 687.011 926.557 685.212 929.746C675.116 944.803 662.03 955.783 648.436 967.635C639.372 975.562 630.575 983.731 621.834 992.012C619.274 994.435 616.713 996.858 614.076 999.354C608.989 1004.18 603.913 1009.02 598.849 1013.87C596.49 1016.1 594.131 1018.33 591.7 1020.63C589.608 1022.62 587.515 1024.62 585.36 1026.68C578.474 1032.31 571.613 1035.96 563.535 1039.64C563.981 1042.38 564.428 1045.13 564.888 1047.95C566.031 1060.09 565.996 1070 563.535 1081.96C551.222 1096.71 533.058 1104.58 516.373 1113.59C469.453 1137.22 469.453 1137.22 440.021 1178.33C435.541 1193.76 432.72 1208.25 432.72 1224.32C435.36 1222.67 438.001 1221.02 440.721 1219.31C452.623 1211.89 464.554 1204.52 476.485 1197.15C480.642 1194.55 484.798 1191.94 489.08 1189.26C493.048 1186.82 497.015 1184.38 501.103 1181.86C504.77 1179.59 508.437 1177.31 512.216 1174.96C515.185 1173.48 518.154 1171.99 521.213 1170.46C523.752 1171.72 526.291 1172.99 528.908 1174.3C501.621 1194.87 473.578 1213.86 444.78 1232.22C430.361 1241.42 416.285 1250.85 402.421 1260.87C363.255 1286.53 326.485 1281.98 282.668 1274.34C290.363 1264.08 298.058 1253.82 305.753 1243.56C307.513 1240.68 309.274 1237.8 311.088 1234.84C317.295 1228.17 317.295 1228.17 327.635 1227.21C330.571 1227.52 333.507 1227.84 336.533 1228.17C328.694 1224.36 320.835 1220.61 312.967 1216.87C308.592 1214.77 304.218 1212.67 299.711 1210.51C280.581 1202.64 263.284 1200.72 242.75 1200.99C239.387 1201.03 236.024 1201.06 232.56 1201.1C230.05 1201.14 227.541 1201.19 224.955 1201.24C226.78 1205.76 228.605 1210.28 230.486 1214.94C236.067 1229.71 238.713 1243.28 240.345 1258.95C210.162 1254.64 187.489 1247.83 167.243 1224.32C159.003 1208.84 153.082 1192.67 147.043 1176.23C132.172 1137.61 115.924 1100.55 96.5109 1064C78.2121 1029.02 69.3865 993.859 63.36 954.995C62.3943 948.828 62.3943 948.828 61.409 942.537C54.0104 891.437 51.0029 839.919 47.7822 788.418C47.5618 784.959 47.3415 781.5 47.1145 777.936C46.7004 771.36 46.3033 764.784 45.9254 758.206C46.3181 743.829 46.3181 743.829 40.275 731.84C38.2024 721.668 36.2885 711.523 34.5038 701.301C31.5614 681.377 31.5614 681.377 24.885 662.585C24.519 654.837 24.3776 647.077 24.344 639.32C24.7437 571.54 24.7437 571.54 5.87298 507.257C0.137534 493.014 -1.43031 481.653 4.72229 467.186C8.63447 459.83 12.8112 452.773 17.19 445.682C22.2687 437.271 27.3474 428.859 32.58 420.193C73.2096 420.193 113.839 420.193 155.7 420.193C155.7 383.372 155.7 346.551 155.7 308.615C197.599 308.615 239.499 308.615 282.668 308.615C282.668 356.863 282.668 405.11 282.668 454.82C330.915 454.82 379.163 454.82 428.873 454.82C428.873 414.19 428.873 373.561 428.873 331.7C475.851 331.7 522.829 331.7 571.23 331.7C571.23 346.936 571.23 362.172 571.23 377.87C605.511 377.87 639.793 377.87 675.113 377.87C675.113 368.982 675.113 360.095 675.113 350.938C700.506 350.938 725.9 350.938 752.063 350.938C752.063 320.465 752.063 289.993 752.063 258.598C716.512 258.598 680.961 258.598 644.333 258.598C644.333 273.834 644.333 289.07 644.333 304.768C607.512 304.768 570.691 304.768 532.755 304.768C532.755 273.026 532.755 241.284 532.755 208.58C501.013 208.58 469.271 208.58 436.568 208.58C436.568 231.434 436.568 254.288 436.568 277.835C352.769 277.835 268.97 277.835 182.633 277.835C181.799 244.149 181.799 244.149 180.949 209.782C180.704 202.726 180.459 195.67 180.206 188.4C180.128 182.768 180.059 177.135 180.002 171.503C179.865 168.611 179.727 165.718 179.585 162.738C179.575 154.224 179.575 154.224 182.633 139.325C189.029 133.265 195.248 129.182 203.015 125.043C211.811 119.275 211.811 119.275 217.26 100.85C233.766 100.85 250.272 100.85 267.278 100.85C269.42 92.5178 269.42 92.5178 271.606 84.0172C277.218 67.0746 277.218 67.0746 290.122 60.2108C301.905 58.5275 301.905 58.5275 317.295 58.5275C321.104 45.8308 324.913 33.134 328.838 20.0525C366.881 18.4293 402.018 24.6305 439.213 31.595C445.322 32.7106 451.431 33.8228 457.541 34.9315C472.36 37.628 487.169 40.37 501.975 43.1375C503.076 40.2262 504.177 37.3149 505.312 34.3153C510.468 21.9926 517.433 11.7466 525.06 0.815002Z" fill="#96979A"/>
<path d="M525.06 0.815002C536.584 6.24364 546.74 12.578 557.132 19.9323C560.277 22.1294 563.421 24.3265 566.661 26.5902C573.214 31.1951 579.757 35.8141 586.289 40.4473C611.139 57.7562 628.193 67.22 659.001 64.5392C671.07 65.1855 671.07 65.1855 682.807 70.07C697.019 86.9916 705.614 108.006 714.115 128.224C717.66 136.474 717.66 136.474 725.13 147.02C729.098 145.909 733.065 144.798 737.153 143.653C752.062 143.173 752.062 143.173 758.991 148.057C764.673 153.847 769.942 160.036 775.147 166.258C777.687 154.83 780.226 143.403 782.842 131.63C798.311 145.552 809.042 161.96 820.356 179.243C822.305 182.1 824.254 184.956 826.262 187.9C840.626 209.814 840.626 209.814 840.224 224.571C839.466 235.318 839.466 235.318 845.154 241.368C851.872 247.649 858.817 253.392 866.045 259.078C868.42 261.047 870.796 263.016 873.244 265.045C884.534 274.291 894.207 281.581 907.495 287.905C919.324 298.738 919.365 301.961 920.857 317.452C921.158 326.045 921.313 334.644 921.352 343.243C921.465 350.277 921.465 350.277 921.58 357.453C921.729 372.278 921.69 387.091 921.593 401.917C921.574 407.082 921.556 412.247 921.54 417.412C921.495 429.882 921.433 442.351 921.352 454.82C907.386 454.82 893.42 454.82 879.03 454.82C879.03 475.135 879.03 495.45 879.03 516.38C870.142 516.38 861.255 516.38 852.097 516.38C852.097 545.583 852.097 574.785 852.097 604.873C847.019 604.873 841.94 604.873 836.707 604.873C836.707 644.232 836.707 683.592 836.707 724.145C840.516 725.415 844.326 726.684 848.25 727.993C860.689 746.234 857.978 768.501 855.945 789.553C846.35 829.783 811.441 867.435 784.766 898.004C770.987 914.616 767.407 928.437 766.085 949.81C763.605 958.843 763.605 958.843 755.91 965.786C740.382 971.973 726.992 971.647 710.461 971.106C707.429 971.054 704.396 971.002 701.271 970.949C693.833 970.813 686.396 970.606 678.96 970.385C680.559 958.925 682.173 948.778 686.755 938.109C697.79 908.528 689.472 871.745 685.212 841.253C684.726 837.546 684.24 833.839 683.739 830.019C681.435 812.93 678.777 796.265 674.752 779.498C668.729 750.457 670.458 720.474 670.784 690.96C670.823 684.833 670.858 678.706 670.889 672.579C670.973 657.705 671.106 642.831 671.265 627.958C687.771 627.958 704.277 627.958 721.282 627.958C722.552 658.43 723.822 688.902 725.13 720.298C737.827 721.567 750.523 722.837 763.605 724.145C763.605 691.133 763.605 658.122 763.605 624.11C750.908 624.11 738.211 624.11 725.13 624.11C725.13 617.762 725.13 611.413 725.13 604.873C722.865 604.941 720.6 605.009 718.267 605.08C694.357 605.769 670.449 606.228 646.531 606.563C637.647 606.717 628.763 606.926 619.881 607.195C564.427 608.83 522.674 606.139 474.373 577.823C420.785 549.372 353.89 550.653 294.854 547.11C291.61 546.907 288.365 546.703 285.023 546.494C278.854 546.114 272.683 545.766 266.511 545.453C252.185 544.578 244.848 543.75 232.65 535.618C297.403 535.618 362.157 535.618 428.872 535.618C428.872 468.325 428.872 401.032 428.872 331.7C475.85 331.7 522.828 331.7 571.23 331.7C571.23 346.936 571.23 362.172 571.23 377.87C605.511 377.87 639.792 377.87 675.112 377.87C675.112 368.982 675.112 360.095 675.112 350.938C700.506 350.938 725.899 350.938 752.062 350.938C752.062 320.465 752.062 289.993 752.062 258.598C716.512 258.598 680.961 258.598 644.332 258.598C644.332 273.834 644.332 289.07 644.332 304.768C607.512 304.768 570.691 304.768 532.755 304.768C532.755 273.026 532.755 241.284 532.755 208.58C501.013 208.58 469.271 208.58 436.567 208.58C436.567 231.434 436.567 254.288 436.567 277.835C352.769 277.835 268.97 277.835 182.632 277.835C182.077 255.378 181.521 232.92 180.949 209.782C180.704 202.726 180.459 195.67 180.206 188.4C180.127 182.768 180.059 177.135 180.002 171.503C179.865 168.61 179.727 165.718 179.585 162.738C179.575 154.224 179.575 154.224 182.632 139.325C189.028 133.265 195.248 129.182 203.014 125.043C211.81 119.275 211.81 119.275 217.26 100.85C233.766 100.85 250.271 100.85 267.277 100.85C268.706 95.2952 270.134 89.7403 271.606 84.0172C277.218 67.0746 277.218 67.0746 290.122 60.2108C301.905 58.5275 301.905 58.5275 317.295 58.5275C321.104 45.8308 324.913 33.134 328.837 20.0525C366.881 18.4293 402.018 24.6305 439.213 31.595C445.321 32.7106 451.431 33.8228 457.541 34.9315C472.36 37.628 487.169 40.37 501.975 43.1375C503.076 40.2262 504.177 37.3149 505.311 34.3153C510.468 21.9926 517.433 11.7466 525.06 0.815002Z" fill="#D1D2D4"/>
<path d="M525.06 0.815002C536.584 6.24364 546.74 12.578 557.132 19.9323C560.277 22.1294 563.421 24.3265 566.661 26.5902C573.214 31.1951 579.757 35.8141 586.289 40.4473C611.139 57.7562 628.193 67.22 659.001 64.5392C671.07 65.1855 671.07 65.1855 682.807 70.07C697.019 86.9915 705.614 108.006 714.115 128.224C717.66 136.474 717.66 136.474 725.13 147.02C729.098 145.909 733.065 144.798 737.153 143.653C752.062 143.172 752.062 143.172 758.991 148.057C764.673 153.847 769.942 160.036 775.147 166.257C777.687 162.448 780.226 158.639 782.842 154.715C782.842 188.996 782.842 223.277 782.842 258.597C737.134 258.597 691.426 258.597 644.332 258.597C644.332 273.834 644.332 289.07 644.332 304.767C607.512 304.767 570.691 304.767 532.755 304.767C532.755 273.026 532.755 241.284 532.755 208.58C501.013 208.58 469.271 208.58 436.567 208.58C436.567 231.434 436.567 254.288 436.567 277.835C352.769 277.835 268.97 277.835 182.632 277.835C182.077 255.378 181.521 232.92 180.949 209.782C180.704 202.726 180.459 195.67 180.206 188.4C180.127 182.768 180.059 177.135 180.002 171.503C179.865 168.61 179.727 165.718 179.585 162.738C179.575 154.224 179.575 154.224 182.632 139.325C189.028 133.265 195.248 129.182 203.014 125.043C211.81 119.275 211.81 119.275 217.26 100.85C233.766 100.85 250.271 100.85 267.277 100.85C268.706 95.2952 270.134 89.7403 271.606 84.0172C277.218 67.0746 277.218 67.0746 290.122 60.2108C301.905 58.5275 301.905 58.5275 317.295 58.5275C321.104 45.8307 324.913 33.134 328.837 20.0525C366.881 18.4293 402.018 24.6305 439.213 31.595C445.321 32.7106 451.431 33.8228 457.541 34.9315C472.36 37.628 487.169 40.3699 501.975 43.1375C503.076 40.2262 504.177 37.3148 505.311 34.3153C510.468 21.9926 517.433 11.7466 525.06 0.815002Z" fill="#9FA1A3"/>
<path d="M109.53 674.127C140.254 675.834 164 694.834 186.48 713.805C189.069 715.945 191.658 718.085 194.325 720.29C199.477 724.562 204.608 728.858 209.717 733.181C214.775 737.442 219.88 741.647 225.028 745.798C227.454 747.784 229.88 749.769 232.38 751.814C234.551 753.562 236.723 755.311 238.96 757.113C247.553 766.157 248.819 777.715 251.888 789.552C261.404 798.909 261.404 798.909 271.125 804.942C267.066 817.593 263.172 820.483 251.437 827.321C246.64 829.608 241.819 831.846 236.979 834.039C218.209 842.628 218.209 842.628 200.953 853.863C194.175 858.807 194.175 858.807 181.43 858.807C168.225 855.226 164.543 853.354 154.738 845.101C137.207 831.14 119.536 834.392 97.9876 835.722C88.465 852.863 88.465 852.863 78.7501 870.35C86.8416 882.216 94.9381 894.079 103.037 905.939C105.326 909.297 107.615 912.655 109.973 916.114C112.193 919.363 114.412 922.611 116.699 925.958C118.734 928.94 120.769 931.922 122.866 934.995C128.633 943.492 128.633 943.492 135.117 951.2C140.97 959.813 142.165 965.207 143.121 975.495C143.431 978.57 143.741 981.645 144.06 984.813C144.33 987.987 144.6 991.161 144.879 994.432C145.351 999.282 145.351 999.282 145.833 1004.23C146.601 1012.18 147.309 1020.14 148.005 1028.1C150.971 1025.88 153.937 1023.65 156.993 1021.36C160.851 1018.51 164.71 1015.65 168.685 1012.71C172.524 1009.85 176.363 1006.99 180.318 1004.05C190.328 997.317 190.328 997.317 198.023 997.317C197.705 992.636 197.388 987.954 197.061 983.13C197.104 970.911 197.831 966.862 204.275 955.957C214.306 946.453 224.733 939.129 236.498 931.91C234.509 930.001 232.52 928.091 230.471 926.124C209.692 904.695 209.692 904.695 209.084 887.664C213.908 872.657 219.056 858.038 224.955 843.417C228.576 843.363 232.196 843.308 235.926 843.252C243.113 842.977 243.113 842.977 250.445 842.696C255.176 842.562 259.908 842.428 264.783 842.29C282.592 838.839 289.027 832.755 301.905 820.332C303.978 867.458 302.753 908.379 287.252 953.191C283.491 964.139 280.725 974.392 278.82 985.775C255.623 983.803 232.573 981.659 209.565 978.08C207.661 985.698 207.661 985.698 205.718 993.47C211.669 992.756 211.669 992.756 217.741 992.027C235.099 993.707 239.525 997 251.018 1009.2C259.783 1022.87 258.146 1036.94 257.178 1052.63C256.464 1069.05 256.464 1069.05 255.735 1085.81C226.533 1087.08 197.33 1088.35 167.243 1089.66C181.141 1114.49 181.141 1114.49 199.706 1132.94C203.984 1136.66 203.984 1136.66 208.348 1140.46C245.904 1169.59 286.534 1170.27 332.49 1165.41C352.487 1162.06 363.255 1157.01 378.855 1143.52C374.497 1143.47 374.497 1143.47 370.052 1143.41C356.632 1143.2 343.217 1142.88 329.799 1142.56C325.232 1142.51 320.664 1142.45 315.957 1142.4C282.069 1141.47 241.826 1138.88 216.298 1113.7C214.076 1110.85 211.854 1107.99 209.565 1105.05C214.247 1106.79 218.929 1108.54 223.753 1110.34C272.572 1126.33 324.14 1126.31 375.008 1128.13C361.041 1119.24 347.075 1110.36 332.685 1101.2C358.889 1047.6 358.889 1047.6 371.16 1031.94C374.969 1030.68 378.778 1029.41 382.703 1028.1C386.698 1015.93 386.698 1015.93 386.55 1001.16C380.095 990.876 372.233 982.594 363.465 974.232C364.735 971.693 366.004 969.154 367.313 966.537C378.815 977.081 387.463 986.47 394.966 1000.2C400.504 1012.89 400.504 1012.89 409.635 1016.55C408.365 998.78 407.096 981.004 405.788 962.69C426.716 973.609 446.884 984.847 466.656 997.723C469.898 999.827 473.14 1001.93 476.481 1004.1C483.016 1008.37 489.525 1012.68 496.006 1017.03C499.042 1019.01 502.078 1020.99 505.206 1023.03C507.919 1024.84 510.632 1026.65 513.426 1028.51C523.34 1032.88 526.531 1031.82 536.603 1028.1C544.471 1021.9 544.471 1021.9 552.124 1013.89C556.629 1009.38 556.629 1009.38 561.224 1004.78C564.427 1001.52 567.63 998.259 570.929 994.898C574.238 991.573 577.547 988.248 580.956 984.822C591.528 974.185 602.06 963.508 612.591 952.831C619.747 945.617 626.906 938.405 634.068 931.196C651.627 913.509 669.154 895.79 686.655 878.045C694.35 885.74 694.35 885.74 696.274 899.687C695.669 920.593 684.979 932.459 671.265 947.3C666.589 951.559 661.836 955.737 657.017 959.834C637.606 976.594 619.137 994.294 600.657 1012.07C598.068 1014.53 595.48 1016.98 592.812 1019.52C589.358 1022.82 589.358 1022.82 585.835 1026.2C578.757 1032.08 571.904 1035.88 563.535 1039.64C563.981 1042.38 564.428 1045.13 564.888 1047.95C566.031 1060.09 565.996 1070 563.535 1081.96C551.222 1096.71 533.058 1104.58 516.373 1113.59C469.452 1137.22 469.452 1137.22 440.021 1178.33C435.541 1193.76 432.72 1208.25 432.72 1224.32C435.36 1222.67 438.001 1221.02 440.721 1219.31C452.623 1211.89 464.554 1204.52 476.485 1197.15C482.72 1193.25 482.72 1193.25 489.08 1189.26C493.048 1186.82 497.015 1184.38 501.103 1181.86C504.77 1179.59 508.437 1177.31 512.216 1174.96C515.185 1173.48 518.154 1171.99 521.213 1170.46C523.752 1171.72 526.291 1172.99 528.908 1174.3C501.621 1194.87 473.578 1213.86 444.78 1232.22C430.361 1241.42 416.285 1250.85 402.421 1260.87C363.255 1286.53 326.485 1281.98 282.668 1274.34C290.363 1264.08 298.058 1253.82 305.753 1243.56C307.513 1240.68 309.274 1237.8 311.088 1234.84C317.295 1228.17 317.295 1228.17 327.635 1227.21C330.571 1227.52 333.507 1227.84 336.533 1228.17C328.694 1224.36 320.835 1220.61 312.967 1216.87C308.592 1214.77 304.218 1212.67 299.711 1210.51C280.581 1202.64 263.284 1200.72 242.75 1200.99C237.706 1201.05 237.706 1201.05 232.56 1201.1C230.05 1201.14 227.541 1201.19 224.955 1201.24C226.78 1205.76 228.605 1210.28 230.486 1214.94C236.067 1229.71 238.713 1243.28 240.345 1258.95C210.162 1254.64 187.489 1247.83 167.243 1224.32C159.003 1208.84 153.082 1192.67 147.043 1176.23C132.172 1137.61 115.924 1100.55 96.5109 1064C77.6435 1027.94 69.1778 991.95 63.1196 951.869C62.4686 947.612 61.8177 943.355 61.147 938.969C52.5597 879.689 46.9165 818.737 47.9701 758.772C69.1389 750.511 87.6621 747.636 109.53 754.925C120.249 751.157 120.249 751.157 131.413 745.547C135.237 743.726 139.061 741.906 143 740.031C145.922 738.598 148.843 737.164 151.853 735.687C149.576 734.656 147.3 733.624 144.954 732.561C121.501 720.931 109.564 709.113 97.9876 685.67C103.218 679.869 103.218 679.869 109.53 674.127Z" fill="#04ADEA"/>
<path d="M675.113 758.772C677.722 772.872 680.27 786.982 682.808 801.095C683.542 805.058 684.276 809.021 685.032 813.103C685.726 816.997 686.421 820.89 687.136 824.901C687.781 828.448 688.426 831.994 689.09 835.647C689.556 839.481 690.022 843.315 690.503 847.265C691.27 852.028 692.037 856.792 692.827 861.7C692.432 885.635 672.715 900.059 656.672 915.693C653.216 919.16 649.76 922.627 646.2 926.199C638.888 933.498 631.554 940.759 624.162 947.975C614.693 957.225 605.349 966.591 596.038 976C587.131 984.974 578.133 993.855 569.141 1002.74C565.79 1006.12 562.439 1009.49 558.986 1012.97C555.829 1016.03 552.672 1019.09 549.42 1022.24C546.66 1024.96 543.9 1027.67 541.057 1030.47C532.755 1035.79 532.755 1035.79 522.698 1035.04C511.864 1031.39 503.384 1026.43 493.799 1020.19C490.129 1017.83 486.459 1015.46 482.677 1013.02C478.888 1010.54 475.099 1008.05 471.195 1005.49C463.661 1000.61 456.127 995.733 448.591 990.855C445.268 988.683 441.945 986.511 438.521 984.274C429.013 978.17 419.324 972.351 409.635 966.537C409.635 983.043 409.635 999.549 409.635 1016.55C392.603 1010.88 390.727 1001.55 382.703 985.775C382.703 983.236 382.703 980.696 382.703 978.08C375.085 976.175 375.085 976.175 367.313 974.232C369.024 975.864 370.735 977.496 372.498 979.177C390.281 997.609 390.281 997.609 390.879 1015.83C385.732 1030.41 384.022 1029.4 371.16 1035.79C366.003 1042.28 366.003 1042.28 362.082 1050.01C360.57 1052.76 359.057 1055.52 357.498 1058.35C355.976 1061.22 354.453 1064.09 352.884 1067.05C350.511 1071.41 350.511 1071.41 348.09 1075.85C344.199 1082.99 340.361 1090.17 336.533 1097.35C346.975 1105.84 357.272 1113.73 368.515 1121.16C371.927 1123.46 375.339 1125.76 378.855 1128.13C378.855 1129.4 378.855 1130.67 378.855 1131.98C257.619 1127.96 257.619 1127.96 213.413 1108.9C252.136 1132.79 285.589 1137.66 331.002 1138.47C335.984 1138.6 340.966 1138.74 346.099 1138.87C358.3 1139.19 370.5 1139.45 382.703 1139.68C359.692 1163.41 341.268 1169.22 308.458 1171.24C261.024 1171.88 229.353 1164.76 194.175 1131.98C167.243 1104.9 167.243 1104.9 167.243 1089.66C178.496 1086.42 188.432 1085.36 200.127 1085.43C203.375 1085.45 206.624 1085.46 209.971 1085.47C215.007 1085.52 215.007 1085.52 220.146 1085.57C223.563 1085.59 226.98 1085.6 230.501 1085.62C238.913 1085.67 247.324 1085.73 255.735 1085.81C255.608 1074.66 255.349 1063.53 255.014 1052.38C254.991 1049.24 254.969 1046.1 254.946 1042.86C254.337 1026.15 253.42 1018.56 242.99 1004.89C230.455 995.71 221.065 994.373 205.718 993.47C205.718 987.122 205.718 980.773 205.718 974.232C229.841 978.042 253.965 981.851 278.82 985.775C280.09 976.887 281.359 968 282.668 958.842C285.232 950.241 287.882 941.665 290.603 933.112C301.185 897.25 299.411 861.204 298.058 824.18C294.167 828.904 294.167 828.904 290.197 833.724C275.927 845.882 269.111 845.481 250.685 844.62C243.447 844.359 243.447 844.359 236.062 844.094C232.397 843.871 228.731 843.647 224.955 843.417C213.3 875.569 213.3 875.569 217.26 908.825C224.217 918.588 231.901 927.262 240.345 935.757C237.935 936.978 235.524 938.198 233.041 939.455C222.858 945.269 214.269 950.788 205.718 958.842C203.167 967.76 203.167 967.76 202.832 977.359C201.243 992.983 198.693 996.718 186.645 1007.49C152.518 1031.95 152.518 1031.95 144.158 1031.95C144.182 1027.47 144.207 1023 144.233 1018.39C142.65 965.991 124.791 936.608 91.9627 896.807C84.7463 887.365 79.6593 877.363 74.9026 866.502C81.1024 853.318 87.633 842.21 97.9876 831.875C112.885 827.116 125.253 828.022 140.31 831.875C149.83 837.306 158.264 843.415 167.002 850.015C175.422 856.18 175.422 856.18 189.366 855.441C201.961 851.877 201.961 851.877 210.767 843.898C221.754 835.211 232.502 829.651 245.154 823.699C261.004 817.355 261.004 817.355 271.125 804.942C268.824 803.911 266.523 802.879 264.151 801.816C255.842 797.305 250.511 792.655 244.193 785.705C245.462 781.896 246.732 778.087 248.04 774.162C250.981 776.35 253.922 778.537 256.952 780.79C288.251 803.529 320.273 820.453 355.77 835.722C354.342 840.722 354.342 840.722 352.884 845.822C351.908 859.008 352.85 865.621 360.882 876.208C375.753 889.354 395.138 895.946 413.242 903.535C421.544 907.086 429.836 910.663 438.116 914.266C443.62 916.584 443.62 916.584 449.236 918.949C459.653 924.215 459.653 924.215 469.656 932.772C478.034 940.461 478.034 940.461 486.77 939.3C495.333 935.261 502.788 930.677 510.557 925.252C513.649 923.112 516.742 920.972 519.928 918.767C523.129 916.518 526.331 914.268 529.629 911.951C535.935 907.565 542.242 903.182 548.551 898.8C551.643 896.646 554.734 894.492 557.92 892.272C572.492 882.213 587.237 872.417 602.01 862.655C576.819 834.226 576.819 834.226 543.711 819.28C536.21 819.588 528.711 819.958 521.213 820.332C512.616 814.606 512.616 814.606 505.823 808.79C511.67 807.741 511.67 807.741 517.636 806.671C522.836 805.696 528.036 804.719 533.236 803.74C535.795 803.286 538.354 802.833 540.991 802.365C553.932 799.891 564.26 796.869 575.979 790.74C586.62 785.705 586.62 785.705 594.826 787.478C597.356 788.639 599.885 789.8 602.491 790.995C611.37 794.074 611.37 794.074 621.248 793.4C634.647 785.555 646.007 776.657 657.784 766.618C667.418 758.772 667.418 758.772 675.113 758.772Z" fill="#EB2C57"/>
<path d="M182.632 143.172C182.632 187.611 182.632 232.05 182.632 277.835C266.431 277.835 350.23 277.835 436.567 277.835C436.567 254.981 436.567 232.127 436.567 208.58C468.309 208.58 500.051 208.58 532.755 208.58C532.755 240.322 532.755 272.064 532.755 304.767C569.576 304.767 606.396 304.767 644.333 304.767C644.333 289.531 644.333 274.295 644.333 258.597C679.883 258.597 715.434 258.597 752.063 258.597C752.063 289.07 752.063 319.542 752.063 350.938C726.669 350.938 701.276 350.938 675.113 350.938C675.113 359.825 675.113 368.713 675.113 377.87C640.831 377.87 606.55 377.87 571.23 377.87C571.23 362.634 571.23 347.398 571.23 331.7C524.252 331.7 477.274 331.7 428.872 331.7C428.872 372.33 428.872 412.959 428.872 454.82C380.625 454.82 332.377 454.82 282.667 454.82C282.667 406.572 282.667 358.325 282.667 308.615C240.768 308.615 198.869 308.615 155.7 308.615C155.7 345.436 155.7 382.256 155.7 420.193C116.34 420.193 76.9801 420.193 36.4275 420.193C40.275 374.023 40.275 374.023 44.1225 362.48C44.0779 359.157 44.0332 355.834 43.9872 352.41C43.5973 305.95 64.1835 267.69 86.445 227.817C90.2925 223.97 90.2925 223.97 97.4013 223.594C105.292 223.72 113.182 223.845 121.072 223.97C121.072 218.891 121.072 213.813 121.072 208.58C123.665 184.719 137.741 173.08 155.7 158.562C175.989 143.172 175.989 143.172 182.632 143.172Z" fill="#1B1818"/>
<path d="M155.7 308.615C197.599 308.615 239.499 308.615 282.668 308.615C282.668 356.863 282.668 405.11 282.668 454.82C330.915 454.82 379.163 454.82 428.873 454.82C428.873 481.483 428.873 508.146 428.873 535.617C364.119 535.617 299.366 535.617 232.65 535.617C227.571 557.202 222.493 578.786 217.26 601.025C199.977 604.482 191.544 604.501 174.938 601.025C174.427 603.668 173.916 606.312 173.39 609.036C172.71 612.502 172.031 615.969 171.331 619.541C170.661 622.978 169.991 626.415 169.302 629.956C167.243 639.5 167.243 639.5 163.395 651.042C152.974 649.847 142.554 648.644 132.134 647.435C129.208 647.101 126.282 646.766 123.267 646.421C107.055 644.534 90.9805 642.351 74.9025 639.5C74.7587 642.297 74.6149 645.094 74.4667 647.977C72.6093 676.384 69.721 705.054 59.5125 731.84C53.799 735.649 53.799 735.649 47.97 739.535C36.9685 728.533 36.7083 715.859 34.2633 701.06C31.4615 681.256 31.4615 681.256 24.885 662.585C24.519 654.836 24.3776 647.077 24.344 639.32C24.7437 571.539 24.7437 571.539 5.87298 507.257C0.137534 493.014 -1.43031 481.653 4.72229 467.186C8.63447 459.83 12.8112 452.772 17.19 445.682C22.2687 437.271 27.3474 428.859 32.58 420.192C73.2096 420.192 113.839 420.192 155.7 420.192C155.7 383.372 155.7 346.551 155.7 308.615Z" fill="#96989A"/>
<path d="M317.295 58.5275C317.295 91.539 317.295 124.551 317.295 158.562C356.655 158.562 396.015 158.562 436.567 158.562C436.567 173.799 436.567 189.035 436.567 204.732C443.566 204.688 450.564 204.643 457.774 204.597C466.977 204.561 476.18 204.526 485.383 204.492C489.993 204.46 494.603 204.428 499.352 204.394C503.804 204.382 508.255 204.37 512.841 204.357C516.931 204.337 521.021 204.316 525.236 204.296C536.602 204.732 536.602 204.732 555.84 208.58C555.84 225.086 555.84 241.592 555.84 258.597C585.042 258.597 614.245 258.597 644.332 258.597C644.332 273.834 644.332 289.07 644.332 304.767C607.512 304.767 570.691 304.767 532.755 304.767C532.755 273.026 532.755 241.284 532.755 208.58C501.013 208.58 469.271 208.58 436.567 208.58C436.567 231.434 436.567 254.288 436.567 277.835C352.769 277.835 268.97 277.835 182.632 277.835C182.077 255.378 181.521 232.92 180.949 209.782C180.704 202.726 180.459 195.67 180.206 188.4C180.127 182.768 180.059 177.135 180.002 171.503C179.865 168.61 179.727 165.718 179.585 162.738C179.575 154.224 179.575 154.224 182.632 139.325C189.028 133.265 195.248 129.182 203.014 125.043C211.81 119.275 211.81 119.275 217.26 100.85C233.766 100.85 250.271 100.85 267.277 100.85C268.706 95.2952 270.134 89.7403 271.606 84.0172C277.218 67.0746 277.218 67.0746 290.122 60.2108C301.905 58.5275 301.905 58.5275 317.295 58.5275Z" fill="#838587"/>
<path d="M817.47 454.82C837.785 454.82 858.1 454.82 879.03 454.82C879.03 475.135 879.03 495.45 879.03 516.38C870.142 516.38 861.255 516.38 852.098 516.38C852.098 545.583 852.098 574.785 852.098 604.873C847.019 604.873 841.94 604.873 836.708 604.873C836.708 644.232 836.708 683.592 836.708 724.145C840.517 725.415 844.326 726.684 848.25 727.993C860.689 746.234 857.978 768.501 855.945 789.553C846.35 829.783 811.441 867.435 784.766 898.004C770.987 914.616 767.407 928.437 766.085 949.81C763.605 958.843 763.605 958.843 755.91 965.786C740.382 971.973 726.992 971.647 710.461 971.106C707.429 971.054 704.396 971.002 701.271 970.949C693.833 970.813 686.396 970.606 678.96 970.385C680.559 958.925 682.173 948.778 686.755 938.109C697.79 908.528 689.472 871.745 685.212 841.253C684.726 837.546 684.24 833.839 683.739 830.019C681.435 812.93 678.777 796.265 674.752 779.498C668.729 750.457 670.458 720.474 670.784 690.96C670.823 684.833 670.858 678.706 670.889 672.579C670.973 657.705 671.106 642.831 671.265 627.958C687.771 627.958 704.277 627.958 721.282 627.958C722.552 658.43 723.822 688.902 725.13 720.298C760.681 720.298 796.232 720.298 832.86 720.298C832.86 680.938 832.86 641.578 832.86 601.025C797.309 601.025 761.758 601.025 725.13 601.025C725.13 594.677 725.13 588.328 725.13 581.788C761.951 581.788 798.771 581.788 836.708 581.788C836.708 588.136 836.708 594.484 836.708 601.025C840.517 601.025 844.326 601.025 848.25 601.025C848.25 573.092 848.25 545.159 848.25 516.38C838.093 516.38 827.935 516.38 817.47 516.38C817.47 496.065 817.47 475.75 817.47 454.82Z" fill="#BBBEC2"/>
<path d="M428.873 331.7C475.851 331.7 522.828 331.7 571.23 331.7C571.23 346.936 571.23 362.172 571.23 377.87C605.511 377.87 639.792 377.87 675.113 377.87C675.113 368.982 675.113 360.095 675.113 350.938C718.281 350.938 761.45 350.938 805.927 350.938C805.927 353.477 805.927 356.016 805.927 358.633C793.231 358.633 780.534 358.633 767.453 358.633C767.453 390.374 767.453 422.116 767.453 454.82C778.88 454.82 790.307 454.82 802.08 454.82C802.08 468.786 802.08 482.753 802.08 497.142C760.181 497.142 718.281 497.142 675.113 497.142C675.113 459.052 675.113 420.962 675.113 381.718C640.831 381.718 606.55 381.718 571.23 381.718C571.23 441.392 571.23 501.067 571.23 562.55C525.522 561.28 479.813 560.011 432.72 558.702C432.72 551.084 432.72 543.466 432.72 535.617C449.226 535.617 465.732 535.617 482.738 535.617C482.738 508.954 482.738 482.291 482.738 454.82C464.962 454.82 447.187 454.82 428.873 454.82C428.873 414.19 428.873 373.561 428.873 331.7Z" fill="#BDBFC1"/>
<path d="M436.568 208.58C468.309 208.58 500.051 208.58 532.755 208.58C532.755 240.322 532.755 272.064 532.755 304.768C569.576 304.768 606.396 304.768 644.333 304.768C644.333 289.531 644.333 274.295 644.333 258.597C679.883 258.597 715.434 258.597 752.062 258.597C752.062 289.07 752.062 319.542 752.062 350.938C726.669 350.938 701.275 350.938 675.112 350.938C675.112 359.825 675.112 368.713 675.112 377.87C640.831 377.87 606.55 377.87 571.23 377.87C571.23 362.634 571.23 347.398 571.23 331.7C524.252 331.7 477.274 331.7 428.873 331.7C428.873 346.936 428.873 362.172 428.873 377.87C389.513 377.87 350.153 377.87 309.6 377.87C309.6 344.858 309.6 311.847 309.6 277.835C351.499 277.835 393.399 277.835 436.568 277.835C436.568 254.981 436.568 232.127 436.568 208.58Z" fill="#4A4A4C"/>
<path d="M232.65 539.465C248.26 540.473 263.868 541.498 279.476 542.541C284.782 542.893 290.089 543.24 295.395 543.582C303.037 544.075 310.677 544.588 318.317 545.101C322.911 545.403 327.505 545.705 332.238 546.017C341.862 546.934 350.384 548.279 359.618 551.008C361.94 621.555 364.195 692.024 363.465 762.62C367.73 761.509 371.996 760.398 376.39 759.253C382.021 757.81 387.652 756.367 393.283 754.925C396.09 754.191 398.897 753.457 401.79 752.701C415.197 749.288 426.492 747.23 440.415 747.23C439.366 744.959 438.317 742.689 437.236 740.349C432.502 730.069 427.801 719.773 423.101 709.476C421.45 705.903 419.798 702.33 418.096 698.648C416.534 695.213 414.972 691.779 413.362 688.24C411.186 683.495 411.186 683.495 408.966 678.654C405.788 670.28 405.788 670.28 405.788 658.738C451.077 668.976 493.705 682.785 536.67 700.394C552.887 706.847 567.088 710.4 584.696 711.4C588.704 711.653 592.711 711.906 596.84 712.167C599.816 712.311 602.792 712.454 605.857 712.603C599.445 719.015 593.032 725.428 586.62 731.84C583.843 734.776 581.065 737.712 578.204 740.737C571.23 747.23 571.23 747.23 563.535 747.23C567.344 756.753 567.344 756.753 571.23 766.468C540.831 772.298 511.174 775.303 480.228 776.312C467.447 777.081 467.447 777.081 458.499 783.607C446.346 790.562 436.756 792.198 422.906 794.046C418.073 794.703 413.239 795.361 408.26 796.038C403.238 796.675 398.216 797.312 393.043 797.969C388.066 798.651 383.089 799.333 377.961 800.035C353.713 803.248 330.214 805.842 305.753 804.943C304.959 801.054 304.165 797.166 303.348 793.16C299.995 780.82 295.555 774.978 286.29 766.317C270.402 748.353 272.232 730.507 273.289 707.553C273.361 703.776 273.433 699.999 273.507 696.108C274.098 671.979 276.076 648.083 278.82 624.11C275.988 623.644 273.156 623.178 270.238 622.697C266.484 622.053 262.729 621.408 258.861 620.743C255.156 620.119 251.451 619.494 247.634 618.85C236.843 616.49 227.37 613.119 217.26 608.72C217.603 602.945 218.019 597.174 218.462 591.406C218.686 588.192 218.909 584.979 219.139 581.667C221.732 566.619 226.998 553.648 232.65 539.465Z" fill="#F38632"/>
<path d="M782.842 131.63C797.963 146.751 808.746 161.508 820.356 179.243C822.305 182.1 824.254 184.956 826.262 187.9C840.626 209.814 840.626 209.814 840.224 224.571C839.466 235.318 839.466 235.318 845.154 241.368C851.872 247.649 858.817 253.392 866.045 259.078C868.42 261.047 870.796 263.016 873.244 265.045C884.534 274.291 894.207 281.581 907.495 287.905C919.323 298.738 919.365 301.961 920.856 317.452C921.158 326.045 921.313 334.644 921.352 343.243C921.427 347.932 921.502 352.621 921.58 357.453C921.729 372.279 921.689 387.09 921.593 401.917C921.514 419.375 921.434 436.833 921.352 454.82C883.262 454.82 845.172 454.82 805.927 454.82C805.927 468.786 805.927 482.753 805.927 497.143C804.658 497.143 803.388 497.143 802.08 497.143C802.08 483.176 802.08 469.21 802.08 454.82C790.653 454.82 779.226 454.82 767.452 454.82C767.452 423.078 767.452 391.336 767.452 358.633C780.149 358.633 792.846 358.633 805.927 358.633C805.927 356.093 805.927 353.554 805.927 350.938C788.152 350.938 770.377 350.938 752.062 350.938C752.062 320.465 752.062 289.993 752.062 258.598C762.22 258.598 772.377 258.598 782.842 258.598C782.842 216.698 782.842 174.799 782.842 131.63Z" fill="#BDBCBE"/>
<path d="M686.655 878.045C694.35 885.74 694.35 885.74 696.274 899.687C695.669 920.593 684.979 932.459 671.265 947.3C666.588 951.559 661.836 955.737 657.017 959.834C637.605 976.594 619.137 994.294 600.657 1012.07C598.068 1014.53 595.479 1016.98 592.812 1019.52C590.509 1021.72 588.207 1023.93 585.835 1026.2C578.757 1032.08 571.904 1035.88 563.535 1039.64C563.981 1042.38 564.428 1045.13 564.888 1047.95C566.031 1060.09 565.996 1070 563.535 1081.96C556.044 1090.94 548.394 1095.46 538.241 1101.26C527.502 1107.48 518.23 1113.87 508.392 1121.34C459.05 1157.56 459.05 1157.56 433.817 1154.46C422.797 1152.01 412.521 1148.47 402.045 1144.29C398.201 1142.77 394.358 1141.24 390.397 1139.68C386.588 1141.58 386.588 1141.58 382.702 1143.52C365.546 1144.08 348.395 1143.32 331.242 1142.8C326.525 1142.73 321.809 1142.66 316.949 1142.58C282.783 1141.55 242.066 1139.09 216.298 1113.7C214.076 1110.85 211.854 1107.99 209.565 1105.05C214.247 1106.79 218.929 1108.54 223.753 1110.34C272.572 1126.33 324.14 1126.31 375.007 1128.13C361.041 1119.24 347.075 1110.36 332.685 1101.2C358.889 1047.6 358.889 1047.6 371.16 1031.95C374.969 1030.68 378.778 1029.41 382.702 1028.1C386.698 1015.93 386.698 1015.93 386.55 1001.17C380.095 990.876 372.233 982.594 363.465 974.232C364.735 971.693 366.004 969.154 367.312 966.537C378.815 977.081 387.463 986.47 394.966 1000.2C400.504 1012.89 400.504 1012.89 409.635 1016.56C408.365 998.78 407.096 981.004 405.787 962.69C426.716 973.609 446.884 984.847 466.656 997.723C469.898 999.827 473.14 1001.93 476.481 1004.1C483.016 1008.37 489.525 1012.68 496.005 1017.03C499.042 1019.01 502.078 1020.99 505.206 1023.03C507.919 1024.84 510.631 1026.65 513.426 1028.51C523.34 1032.88 526.531 1031.82 536.602 1028.1C544.471 1021.9 544.471 1021.9 552.124 1013.89C555.127 1010.88 558.13 1007.88 561.224 1004.78C564.427 1001.52 567.63 998.259 570.929 994.898C574.238 991.573 577.547 988.248 580.956 984.822C591.528 974.185 602.06 963.508 612.591 952.831C619.747 945.617 626.906 938.405 634.067 931.196C651.627 913.509 669.153 895.79 686.655 878.045Z" fill="#3E3F94"/>
<path d="M675.112 758.772C677.721 772.872 680.27 786.982 682.807 801.095C683.542 805.058 684.276 809.021 685.032 813.103C685.726 816.997 686.421 820.89 687.136 824.901C687.781 828.448 688.425 831.994 689.09 835.647C689.556 839.481 690.022 843.315 690.502 847.265C691.27 852.028 692.037 856.792 692.827 861.7C692.432 885.635 672.715 900.059 656.672 915.693C653.216 919.16 649.76 922.627 646.2 926.199C638.888 933.498 631.554 940.759 624.162 947.975C614.693 957.225 605.349 966.591 596.038 976C587.131 984.974 578.133 993.855 569.141 1002.74C565.79 1006.12 562.438 1009.49 558.986 1012.97C555.829 1016.03 552.672 1019.09 549.42 1022.24C545.28 1026.31 545.28 1026.31 541.057 1030.47C532.755 1035.79 532.755 1035.79 522.694 1035.04C511.923 1031.41 503.474 1026.51 493.934 1020.33C490.282 1017.98 486.629 1015.63 482.865 1013.21C479.093 1010.74 475.322 1008.28 471.435 1005.73C467.679 1003.31 463.922 1000.89 460.051 998.392C452.801 993.708 445.577 988.983 438.382 984.214C429.33 978.186 429.33 978.186 421.256 974.035C412.552 969.312 406.701 965.266 403.327 955.757C401.799 947.446 401.019 939.38 400.497 930.948C400.234 928.081 399.971 925.215 399.701 922.261C399.069 915.225 398.568 908.178 398.093 901.13C413.937 903.523 426.403 908.796 440.655 916.039C446.555 919 446.555 919 452.574 922.021C463.5 928.062 463.5 928.062 471.661 934.826C478.459 940.461 478.459 940.461 486.02 938.637C495.447 935.351 502.372 930.968 510.557 925.252C513.649 923.112 516.741 920.972 519.928 918.767C523.129 916.518 526.33 914.268 529.629 911.951C535.935 907.565 542.242 903.182 548.551 898.8C551.643 896.646 554.734 894.492 557.92 892.272C572.492 882.213 587.237 872.417 602.01 862.655C576.819 834.226 576.819 834.226 543.711 819.28C536.21 819.588 528.711 819.958 521.213 820.332C512.616 814.606 512.616 814.606 505.823 808.79C509.721 808.091 513.619 807.391 517.636 806.671C522.836 805.696 528.036 804.719 533.236 803.74C535.795 803.286 538.354 802.833 540.991 802.365C553.932 799.891 564.26 796.869 575.979 790.74C586.62 785.705 586.62 785.705 594.826 787.478C597.355 788.639 599.885 789.8 602.491 790.995C611.37 794.074 611.37 794.074 621.247 793.4C634.647 785.555 646.006 776.657 657.784 766.618C667.417 758.772 667.417 758.772 675.112 758.772Z" fill="#E9228F"/>
<path d="M174.938 601.025C188.904 601.025 202.87 601.025 217.26 601.025C217.26 603.564 217.26 606.104 217.26 608.72C219.447 609.186 221.635 609.652 223.888 610.133C226.859 610.777 229.83 611.422 232.891 612.087C235.792 612.711 238.693 613.336 241.683 613.98C254.182 616.962 266.474 620.553 278.82 624.11C278.679 627.795 278.538 631.48 278.393 635.277C277.902 649.071 277.595 662.865 277.341 676.666C277.206 682.615 277.023 688.563 276.788 694.509C274.117 734.944 274.117 734.944 292.286 769.473C294.751 771.539 297.216 773.605 299.756 775.733C305.753 781.858 305.753 781.858 307.541 790.447C307.436 799.171 307.436 799.171 305.753 812.638C290.338 807.172 278.127 799.822 264.873 790.274C261.252 787.71 257.632 785.146 253.902 782.504C244.193 774.162 244.193 774.162 239.023 765.115C229.569 749.998 216.281 740.581 202.351 729.676C199.628 727.506 196.905 725.336 194.1 723.1C188.815 718.893 183.516 714.702 178.203 710.529C172.226 705.805 166.341 700.966 160.479 696.1C145.088 684.356 129.001 677.149 109.53 679.177C105.721 680.487 105.721 680.487 101.835 681.822C110.153 705.943 118.154 714.673 141.272 726.069C148.606 729.367 155.968 732.605 163.395 735.687C151.957 741.552 140.388 746.844 128.527 751.799C125.229 753.202 121.931 754.606 118.533 756.052C109.53 758.772 109.53 758.772 97.9876 754.925C80.7554 754.275 64.8854 755.472 47.9701 758.772C46.5218 741.394 46.5218 741.394 53.5055 732.43C60.5051 722.776 62.0334 715.827 64.0063 704.126C64.6635 700.357 65.3206 696.587 65.9977 692.704C66.635 688.795 67.2723 684.887 67.929 680.861C68.6109 676.893 69.2929 672.925 69.9955 668.837C71.6696 659.064 73.3038 649.286 74.9026 639.5C104.985 641.292 134.016 644.212 163.395 651.042C163.906 648.399 164.417 645.755 164.943 643.032C165.623 639.565 166.302 636.098 167.002 632.526C167.672 629.089 168.341 625.652 169.031 622.111C171.09 612.567 171.09 612.567 174.938 601.025Z" fill="#FAF087"/>
<path d="M109.53 674.127C140.254 675.834 164 694.834 186.48 713.805C189.069 715.945 191.658 718.085 194.325 720.29C199.477 724.562 204.608 728.858 209.717 733.181C214.775 737.442 219.88 741.647 225.028 745.798C227.454 747.784 229.88 749.769 232.379 751.814C234.551 753.562 236.723 755.311 238.96 757.113C247.553 766.157 248.819 777.715 251.888 789.552C261.404 798.909 261.404 798.909 271.125 804.942C267.066 817.593 263.172 820.483 251.437 827.321C246.639 829.608 241.819 831.846 236.978 834.039C218.209 842.628 218.209 842.628 200.953 853.863C194.175 858.807 194.175 858.807 181.43 858.807C168.225 855.226 164.543 853.354 154.738 845.101C139.888 833.737 126.382 832.08 107.922 832.762C95.0574 836.596 91.9695 841.508 85.0022 852.796C83.4647 855.965 81.9272 859.134 80.3431 862.399C74.9025 870.35 74.9025 870.35 64.6525 873.371C60.2037 873.78 60.2037 873.78 55.665 874.197C51.8114 861.197 51.0642 848.947 50.6001 835.422C50.4389 830.958 50.2777 826.494 50.1116 821.895C49.9604 817.253 49.8091 812.611 49.6533 807.828C49.4871 803.126 49.321 798.425 49.1498 793.58C48.7419 781.978 48.3492 770.376 47.97 758.772C69.5143 751.085 87.3205 747.522 109.53 754.925C120.249 751.157 120.249 751.157 131.413 745.547C135.237 743.726 139.06 741.906 143 740.031C145.921 738.598 148.843 737.164 151.852 735.687C149.576 734.656 147.3 733.624 144.954 732.561C121.501 720.931 109.564 709.113 97.9875 685.67C103.218 679.869 103.218 679.869 109.53 674.127Z" fill="#3F3F93"/>
<path d="M28.7325 424.04C30.0021 424.04 31.2718 424.04 32.58 424.04C32.58 440.546 32.58 457.052 32.58 474.058C71.9399 474.058 111.3 474.058 151.852 474.058C151.852 486.754 151.852 499.451 151.852 512.533C177.246 512.533 202.639 512.533 228.802 512.533C228.802 521.42 228.802 530.308 228.802 539.465C226.556 539.304 224.31 539.143 221.996 538.977C169.841 533.981 169.841 533.981 124.199 554.855C119.281 559.958 114.383 565.081 109.53 570.245C106.991 570.245 104.451 570.245 101.835 570.245C100.883 573.419 99.9305 576.593 98.9493 579.864C94.14 593.33 94.14 593.33 86.445 606.315C77.2476 624.031 75.8737 642.457 73.8119 661.976C71.2733 685.6 68.1749 709.587 59.5125 731.84C53.7989 735.649 53.7989 735.649 47.97 739.535C36.9684 728.533 36.7082 715.859 34.2632 701.06C31.4614 681.256 31.4614 681.256 24.885 662.585C24.519 654.836 24.3775 647.077 24.3439 639.32C24.7436 571.539 24.7436 571.539 5.8729 507.257C0.923425 494.966 0.21399 487.229 1.79996 474.058C7.69144 460.862 7.69144 460.862 15.2662 447.606C17.193 444.184 17.193 444.184 19.1588 440.692C22.3064 435.117 25.5134 429.575 28.7325 424.04Z" fill="#606164"/>
<path d="M244.193 774.162C246.98 775.973 249.767 777.783 252.639 779.648C280.359 797.51 280.359 797.51 309.6 812.637C308.33 827.874 307.061 843.11 305.753 858.807C304.483 858.807 303.213 858.807 301.905 858.807C300.001 841.667 300.001 841.667 298.058 824.18C295.994 827.354 293.931 830.528 291.805 833.799C283.091 842.871 278.387 843.459 265.549 844.695C251.974 844.626 238.504 844.243 224.955 843.417C213.3 875.569 213.3 875.569 217.26 908.825C224.217 918.588 231.901 927.262 240.345 935.757C237.935 936.978 235.524 938.198 233.041 939.455C222.858 945.269 214.269 950.788 205.718 958.842C203.167 967.76 203.167 967.76 202.832 977.359C201.243 992.983 198.693 996.718 186.645 1007.49C152.518 1031.94 152.518 1031.94 144.158 1031.94C144.182 1027.47 144.207 1023 144.233 1018.39C142.65 965.991 124.791 936.608 91.9627 896.807C84.7463 887.365 79.6593 877.363 74.9026 866.502C81.1024 853.318 87.633 842.21 97.9876 831.875C112.885 827.116 125.253 828.022 140.31 831.875C149.83 837.306 158.264 843.415 167.002 850.015C175.422 856.18 175.422 856.18 189.366 855.441C201.961 851.877 201.961 851.877 210.767 843.898C221.754 835.211 232.502 829.651 245.154 823.699C261.004 817.355 261.004 817.355 271.125 804.942C268.824 803.911 266.523 802.879 264.151 801.816C255.665 797.209 250.211 793.228 244.193 785.705C244.193 781.896 244.193 778.087 244.193 774.162Z" fill="#F28633"/>
<path d="M440.415 789.552C435.336 793.362 430.258 797.171 425.025 801.095C426.295 804.904 427.564 808.713 428.872 812.637C420.714 819.073 412.536 825.481 404.345 831.875C402.024 833.71 399.702 835.545 397.311 837.436C379.727 851.113 379.727 851.113 371.16 851.113C373.699 854.922 376.239 858.731 378.855 862.655C392.432 860.392 399.199 855.398 409.154 846.063C441.836 816.485 441.836 816.485 459.652 816.485C464.041 823.218 464.041 823.218 468.309 831.875C473.02 840.354 473.02 840.354 478.89 847.265C492.356 851.113 492.356 851.113 505.822 847.265C517.011 840.12 517.011 840.12 525.06 831.875C530.139 834.414 535.217 836.954 540.45 839.57C536.602 851.113 536.602 851.113 530.651 855.651C517.007 860.214 503.674 859.615 489.471 859.288C486.604 859.254 483.737 859.219 480.784 859.183C473.739 859.093 466.696 858.955 459.652 858.808C459.652 860.077 459.652 861.347 459.652 862.655C459.652 865.194 459.652 867.734 459.652 870.35C497.606 871.891 521.491 870.989 551.992 847.265C554.532 847.265 557.071 847.265 559.687 847.265C559.687 844.726 559.687 842.186 559.687 839.57C557.386 838.618 555.085 837.665 552.714 836.684C543.195 831.245 538.781 825.524 532.755 816.485C547.145 814.398 552.215 816.624 564.812 824.496C569.314 827.949 573.777 831.453 578.204 835.001C580.502 836.739 582.801 838.478 585.17 840.269C591.035 844.861 596.554 849.888 602.01 854.96C602.01 858.769 602.01 862.578 602.01 866.503C595.91 871.977 595.91 871.977 587.371 877.624C582.715 880.752 582.715 880.752 577.964 883.942C574.631 886.123 571.298 888.303 567.863 890.549C561.133 895.025 554.405 899.504 547.679 903.986C544.431 906.137 541.183 908.288 537.837 910.505C524.117 919.747 510.915 929.637 497.782 939.695C490.432 943.453 490.432 943.453 483.203 943.122C474.351 939.307 467.098 934.151 459.219 928.658C450.405 923.265 441.363 919.306 431.863 915.243C428.206 913.678 424.548 912.113 420.779 910.501C413.193 907.301 405.588 904.145 397.965 901.032C374.02 890.677 360.332 882.241 348.075 858.808C350.72 845.582 350.72 845.582 355.77 835.723C353.449 835.023 351.128 834.324 348.736 833.603C316.616 823.501 316.616 823.501 305.753 812.637C305.753 810.098 305.753 807.559 305.753 804.942C323.142 802.346 340.537 799.793 357.934 797.247C365.303 796.146 365.303 796.146 372.821 795.023C377.594 794.329 382.368 793.634 387.286 792.919C391.659 792.274 396.031 791.63 400.536 790.965C413.932 789.503 426.95 789.313 440.415 789.552Z" fill="#07AFEB"/>
<path d="M829.013 722.702C832.941 722.419 832.941 722.419 836.948 722.131C844.403 724.145 844.403 724.145 851.03 732.471C860.407 753.288 859.115 776.377 853.826 798.36C839.312 835.092 810.515 868.497 784.766 898.004C770.987 914.616 767.407 928.437 766.085 949.81C763.605 958.843 763.605 958.843 755.91 965.786C740.382 971.973 726.992 971.647 710.461 971.106C707.429 971.054 704.396 971.002 701.271 970.949C693.833 970.813 686.396 970.606 678.96 970.385C680.581 958.77 682.309 948.501 686.82 937.636C691.086 926.545 691.41 917.545 691.705 905.699C693.032 885.695 697.281 873.745 708.928 857.62C714.69 849.573 718.076 841.202 721.282 831.875C726.361 833.145 731.44 834.414 736.672 835.722C734.322 860.637 734.322 860.637 727.294 870.11C721.282 874.197 721.282 874.197 713.587 874.197C716.127 879.276 718.666 884.355 721.282 889.588C725.092 883.041 725.092 883.041 728.977 876.362C738.099 863.357 738.099 863.357 748.245 860.416C755.925 859.806 763.612 859.303 771.3 858.807C778.449 853.279 778.449 853.279 782.843 847.265C785.382 847.265 787.921 847.265 790.538 847.265C791.982 822.977 791.982 822.977 782.843 801.095C773.871 799.806 773.871 799.806 763.605 801.095C760.986 803.714 758.368 806.332 755.67 809.03C753.21 811.49 750.75 813.95 748.215 816.485C739.558 815.523 739.558 815.523 732.825 812.637C744.601 778.181 773.549 749.676 802.08 727.992C811.908 724.717 818.85 723.203 829.013 722.702Z" fill="#0EAFE5"/>
<path d="M359.618 589.483C416.932 587.073 452.022 594.704 497.607 629.556C512.093 640.305 527.395 649.792 542.614 659.459C548.153 663.036 553.69 666.617 559.222 670.205C563.184 672.769 567.147 675.333 571.23 677.975C564.016 700.098 564.016 700.098 559.687 708.755C542.188 706.554 528.487 701.793 512.556 694.327C484.849 682.043 456.768 674.001 427.49 666.357C413.482 662.585 413.482 662.585 405.788 658.738C406.836 661.145 407.885 663.552 408.966 666.032C413.692 676.9 418.397 687.778 423.101 698.655C424.753 702.445 426.404 706.234 428.106 710.138C429.668 713.758 431.231 717.379 432.84 721.109C434.291 724.454 435.742 727.798 437.236 731.244C440.415 739.535 440.415 739.535 440.415 747.23C429.758 749.811 419.097 752.373 408.433 754.925C405.41 755.659 402.387 756.393 399.272 757.149C396.358 757.844 393.445 758.538 390.443 759.253C386.423 760.221 386.423 760.221 382.322 761.207C375.008 762.62 375.008 762.62 363.465 762.62C360.095 704.857 359.126 647.339 359.618 589.483Z" fill="#FCF7D3"/>
<path d="M405.788 658.737C451.077 668.976 493.705 682.785 536.67 700.394C552.887 706.847 567.088 710.4 584.696 711.4C588.704 711.653 592.711 711.906 596.84 712.167C601.304 712.382 601.304 712.382 605.857 712.603C599.445 719.015 593.032 725.428 586.62 731.84C582.454 736.244 582.454 736.244 578.204 740.737C571.23 747.23 571.23 747.23 563.535 747.23C567.344 756.753 567.344 756.753 571.23 766.468C540.831 772.298 511.174 775.303 480.228 776.312C467.447 777.081 467.447 777.081 458.499 783.607C446.346 790.562 436.756 792.198 422.906 794.046C418.073 794.703 413.239 795.361 408.26 796.038C403.238 796.675 398.217 797.312 393.043 797.969C388.066 798.651 383.089 799.333 377.961 800.035C353.713 803.248 330.214 805.842 305.753 804.943C304.483 796.055 303.213 787.167 301.905 778.01C318.487 773.561 335.083 769.168 351.682 764.784C356.347 763.532 361.011 762.28 365.817 760.989C390.771 754.43 414.675 749.201 440.415 747.23C439.366 744.959 438.317 742.689 437.236 740.349C432.502 730.069 427.801 719.773 423.101 709.476C421.45 705.903 419.798 702.33 418.097 698.648C415.753 693.496 415.753 693.496 413.362 688.24C411.912 685.077 410.461 681.913 408.966 678.654C405.788 670.28 405.788 670.28 405.788 658.737Z" fill="#F08632"/>
<path d="M690.503 916.52C698.536 940.62 677.506 973.012 666.627 995.26C645.542 1036.99 623.905 1075.41 593.113 1110.82C591.022 1113.27 588.932 1115.73 586.778 1118.26C558.962 1150.38 528.228 1171.06 491.635 1192.58C487.298 1195.16 482.96 1197.75 478.492 1200.41C444.171 1220.78 444.171 1220.78 428.873 1228.17C431.357 1200.84 435.576 1168.19 455.114 1147.73C468.024 1138.55 481.613 1130.89 495.452 1123.21C502.074 1119.5 508.66 1115.72 515.215 1111.89C521.832 1108.03 528.529 1104.3 535.303 1100.73C544.921 1095.1 552.3 1090.33 559.688 1081.96C561.762 1071.1 561.837 1060.94 561.965 1049.89C564.403 1033.97 573.2 1028.37 585.639 1019.05C588.502 1016.96 591.365 1014.87 594.315 1012.71C599.608 1007.93 604.829 1003.07 609.976 998.129C613.837 994.484 613.837 994.484 617.776 990.765C623.007 985.806 628.237 980.846 633.466 975.886C645.009 964.99 656.536 954.289 668.86 944.279C678.978 935.742 684.488 928.214 690.503 916.52Z" fill="#FAED0D"/>
<path d="M255.735 1020.4C259.941 1022.92 264.147 1025.44 268.48 1028.04C288.539 1038.07 306.817 1037.54 328.837 1036.75C332.552 1036.68 336.267 1036.62 340.094 1036.54C349.171 1036.36 358.24 1036.11 367.312 1035.79C361.583 1050.78 354.832 1065 347.594 1079.32C345.521 1083.43 343.448 1087.54 341.312 1091.78C339.735 1094.89 338.157 1098 336.532 1101.2C339.588 1103.1 342.643 1105 345.79 1106.96C349.719 1109.42 353.647 1111.89 357.694 1114.43C363.586 1118.11 363.586 1118.11 369.597 1121.87C372.652 1123.93 375.707 1126 378.855 1128.13C378.855 1129.4 378.855 1130.67 378.855 1131.98C257.619 1127.96 257.619 1127.96 213.412 1108.9C252.135 1132.79 285.589 1137.66 331.002 1138.47C338.475 1138.67 338.475 1138.67 346.099 1138.87C358.3 1139.19 370.5 1139.45 382.702 1139.68C359.692 1163.41 341.268 1169.22 308.458 1171.24C261.024 1171.88 229.353 1164.76 194.175 1131.98C167.242 1104.9 167.242 1104.9 167.242 1089.66C178.496 1086.42 188.432 1085.36 200.127 1085.43C203.375 1085.45 206.624 1085.46 209.971 1085.47C213.328 1085.5 216.686 1085.54 220.146 1085.57C223.563 1085.59 226.98 1085.6 230.501 1085.62C238.912 1085.67 247.324 1085.74 255.735 1085.81C255.735 1064.23 255.735 1042.64 255.735 1020.4Z" fill="#EA3137"/>
<path d="M532.755 154.715C569.576 154.715 606.396 154.715 644.333 154.715C644.333 171.221 644.333 187.727 644.333 204.733C679.883 204.733 715.434 204.733 752.062 204.733C752.062 222.508 752.062 240.283 752.062 258.598C687.309 258.598 622.556 258.598 555.84 258.598C555.84 242.092 555.84 225.586 555.84 208.58C549.492 208.58 543.143 208.58 536.603 208.58C523.874 195.852 532.755 172.716 532.755 154.715Z" fill="#B5B7B8"/>
<path d="M609.705 708.755C628.683 705.027 628.683 705.027 640.485 708.755C652.677 721.667 662.031 735.949 671.265 751.077C665.384 766.313 656.091 773.467 643.13 783.06C639.495 785.822 635.859 788.585 632.114 791.431C621.248 797.247 621.248 797.247 611.223 796.451C605.559 794.575 599.898 792.693 594.24 790.8C583.805 789.092 578.138 792.173 568.585 796.526C550.345 804.359 532.985 808.87 513.517 812.637C519.588 815.018 519.588 815.018 525.781 817.447C538.864 823.057 549.234 829.75 559.688 839.57C559.688 842.109 559.688 844.649 559.688 847.265C531.881 868.29 506.155 877.376 471.195 874.197C456.819 869.406 455.083 864.063 448.11 851.112C453.824 853.017 453.824 853.017 459.652 854.96C469.881 855.43 479.964 855.672 490.192 855.681C494.325 855.752 494.325 855.752 498.541 855.824C513.132 855.865 524.237 855.434 536.602 847.265C535.333 843.456 534.063 839.647 532.755 835.722C523.161 840.354 514.743 845.165 505.822 851.112C492.597 852.796 492.597 852.796 478.89 851.112C467.494 840.317 462.933 831.538 459.652 816.485C457.287 817.829 454.921 819.173 452.484 820.558C447.819 823.184 447.819 823.184 443.06 825.863C439.98 827.604 436.9 829.345 433.727 831.139C425.025 835.722 425.025 835.722 413.482 839.57C412.213 843.379 410.943 847.188 409.635 851.112C400.738 859.769 400.738 859.769 390.397 866.502C381.741 866.262 381.741 866.262 375.007 862.655C373.103 856.941 373.103 856.941 371.16 851.112C378.601 845.402 386.057 839.715 393.524 834.039C395.629 832.42 397.734 830.801 399.904 829.132C409.546 821.827 417.308 816.492 428.872 812.637C428.872 810.098 428.872 807.559 428.872 804.942C426.333 803.673 423.794 802.403 421.177 801.095C459.134 771.146 496.396 769.114 543.208 767.183C551.664 766.494 559.235 764.928 567.383 762.62C565.478 755.002 565.478 755.002 563.535 747.23C569.769 742.077 576.025 736.953 582.292 731.84C587.514 727.555 587.514 727.555 592.842 723.183C602.01 716.45 602.01 716.45 609.705 716.45C609.705 713.911 609.705 711.371 609.705 708.755Z" fill="#383433"/>
<path d="M155.7 308.615C197.599 308.615 239.498 308.615 282.667 308.615C282.667 356.863 282.667 405.11 282.667 454.82C273.78 454.82 264.892 454.82 255.735 454.82C255.735 443.393 255.735 431.966 255.735 420.193C222.723 420.193 189.712 420.193 155.7 420.193C155.7 383.372 155.7 346.551 155.7 308.615Z" fill="#717275"/>
<path d="M525.06 0.815002C536.584 6.24364 546.74 12.578 557.133 19.9323C560.277 22.1294 563.421 24.3265 566.661 26.5902C573.214 31.1951 579.757 35.8141 586.289 40.4473C611.067 57.7059 630.673 66.5944 661.165 68.6272C665.242 68.9148 669.319 69.2025 673.519 69.4989C676.584 69.6873 679.65 69.8758 682.807 70.07C686.617 78.9577 690.426 87.8454 694.35 97.0025C633.406 97.0025 572.461 97.0025 509.67 97.0025C509.67 84.3057 509.67 71.609 509.67 58.5275C447.456 58.5275 385.242 58.5275 321.143 58.5275C324.99 31.595 324.99 31.595 328.838 20.0525C366.672 17.8163 402.24 24.672 439.213 31.595C445.321 32.7106 451.431 33.8228 457.541 34.9315C472.36 37.628 487.169 40.3699 501.975 43.1375C503.627 38.7705 503.627 38.7705 505.312 34.3153C510.468 21.9926 517.433 11.7466 525.06 0.815002Z" fill="#BEBCBE"/>
<path d="M68.5959 869.144C78.75 870.35 78.75 870.35 85.3423 876.816C87.2635 879.781 89.1848 882.746 91.1642 885.8C94.3781 890.643 94.3781 890.643 97.6569 895.584C99.8292 899.001 102.002 902.419 104.24 905.939C108.617 912.613 112.995 919.286 117.375 925.958C119.288 928.94 121.2 931.922 123.171 934.995C128.554 943.522 128.554 943.522 135.109 950.786C142.018 961.488 142.073 969.447 142.579 982.123C142.82 986.639 143.061 991.154 143.308 995.807C143.712 1005.26 144.103 1014.72 144.481 1024.18C145.896 1050.3 147.792 1068.32 163.395 1089.66C151.968 1099.81 140.541 1109.97 128.768 1120.44C114.926 1101.98 105.766 1082.74 95.8233 1062C93.9213 1058.14 92.0193 1054.28 90.0596 1050.3C74.068 1017.04 67.0449 986.132 63.1196 949.705C62.8056 946.895 62.4916 944.085 62.168 941.191C61.2599 932.969 60.3827 924.745 59.5125 916.52C59.0265 912.066 58.5404 907.613 58.0397 903.024C55.8637 881.655 55.8637 881.655 55.665 874.198C59.5125 870.35 59.5125 870.35 68.5959 869.144Z" fill="#CCE4D1"/>
<path d="M405.787 962.69C420.082 981.749 431.503 1001.9 443.301 1022.57C445.666 1026.62 448.032 1030.68 450.47 1034.85C453.795 1040.68 453.795 1040.68 457.188 1046.63C459.23 1050.18 461.272 1053.73 463.376 1057.38C467.347 1066.57 467.347 1066.57 463.5 1078.11C456.807 1085.03 449.567 1090.85 442.068 1096.89C432.333 1104.9 432.333 1104.9 424.334 1115.49C408.936 1132.59 397.143 1142.16 374.292 1145.1C326.567 1147.02 262.126 1148.91 221.697 1119.03C216.298 1113.7 216.298 1113.7 209.565 1105.05C214.247 1106.79 218.929 1108.54 223.753 1110.34C272.572 1126.33 324.14 1126.31 375.007 1128.13C361.041 1119.24 347.075 1110.36 332.685 1101.2C358.889 1047.6 358.889 1047.6 371.16 1031.94C374.969 1030.68 378.778 1029.41 382.702 1028.1C386.698 1015.93 386.698 1015.93 386.55 1001.16C380.095 990.876 372.233 982.594 363.465 974.232C364.735 971.693 366.004 969.154 367.312 966.537C378.815 977.081 387.463 986.47 394.966 1000.2C400.504 1012.89 400.504 1012.89 409.635 1016.55C408.365 998.78 407.096 981.004 405.787 962.69Z" fill="#737273"/>
<path d="M752.062 350.938C769.838 350.938 787.613 350.938 805.927 350.938C805.927 353.477 805.927 356.016 805.927 358.633C793.231 358.633 780.534 358.633 767.452 358.633C767.452 390.374 767.452 422.116 767.452 454.82C778.88 454.82 790.307 454.82 802.08 454.82C802.08 468.786 802.08 482.753 802.08 497.143C761.45 497.143 720.821 497.143 678.96 497.143C678.96 459.052 678.96 420.962 678.96 381.718C703.084 381.718 727.208 381.718 752.062 381.718C752.062 371.56 752.062 361.403 752.062 350.938Z" fill="#353233"/>
<path d="M359.618 551.008C385.882 549.948 407.585 553.155 432.72 560.626C437.963 562.171 437.963 562.171 443.312 563.748C495.596 579.779 538.372 597.981 575.078 639.5C580.209 644.157 585.418 648.731 590.708 653.207C634.561 690.984 634.561 690.984 640.485 708.755C630.328 708.755 620.17 708.755 609.705 708.755C607.8 712.564 607.8 712.564 605.857 716.45C590.621 715.18 575.385 713.911 559.688 712.603C562.578 698.15 564.459 690.163 571.23 677.975C568.606 677.067 565.983 676.16 563.28 675.225C549.528 669.201 537.63 661.174 525.3 652.726C522.757 651.037 520.213 649.348 517.592 647.608C505.205 639.371 493.096 630.998 481.37 621.841C443.443 593.3 406.249 590.859 359.618 589.483C359.618 576.786 359.618 564.089 359.618 551.008Z" fill="#A73794"/>
<path d="M921.353 366.327C922.622 366.327 923.892 366.327 925.2 366.327C928.969 395.066 932.49 424.959 927.093 453.679C925.013 467.616 925.191 480.83 925.185 494.918C923.564 540.287 904.472 580.021 886.965 621.224C883.703 629.101 880.449 636.981 877.204 644.865C870.031 662.25 862.762 679.591 855.447 696.916C851.66 705.951 847.988 715.028 844.403 724.145C841.863 724.145 839.324 724.145 836.708 724.145C836.708 684.785 836.708 645.425 836.708 604.873C841.786 604.873 846.865 604.873 852.098 604.873C852.098 575.67 852.098 546.467 852.098 516.38C860.985 516.38 869.873 516.38 879.03 516.38C879.03 496.065 879.03 475.75 879.03 454.82C892.996 454.82 906.963 454.82 921.353 454.82C921.353 425.617 921.353 396.415 921.353 366.327Z" fill="#353031"/>
<path d="M278.82 627.957C348.48 636.057 348.48 636.057 359.618 647.195C363.467 673.66 363.935 699.603 363.705 726.309C363.688 730.19 363.671 734.071 363.653 738.07C363.608 747.536 363.545 757.002 363.465 766.467C313.128 781.515 313.128 781.515 298.057 778.01C285.095 768.099 276.183 757.33 273.046 741.126C272.56 729.774 272.769 718.662 273.289 707.312C273.361 703.503 273.433 699.694 273.507 695.77C274.063 672.979 275.987 650.571 278.82 627.957Z" fill="#EB2F35"/>
<path d="M109.53 674.127C140.254 675.834 164 694.834 186.48 713.805C189.069 715.945 191.658 718.085 194.325 720.29C199.481 724.565 204.611 728.87 209.714 733.208C214.745 737.426 219.86 741.546 225.054 745.562C243.353 760.039 243.353 760.039 247.664 773.291C247.709 776.594 247.754 779.897 247.8 783.3C247.914 786.663 248.028 790.026 248.145 793.49C248.111 796 248.076 798.509 248.04 801.095C223.559 817.415 191.846 815.463 163.395 812.637C141.71 804.609 123.838 782.782 113.378 762.62C117.225 751.077 117.225 751.077 125.176 746.584C128.345 745.289 131.514 743.995 134.779 742.661C137.958 741.337 141.138 740.013 144.413 738.648C146.868 737.671 149.323 736.694 151.853 735.687C149.576 734.656 147.3 733.624 144.954 732.561C121.501 720.931 109.564 709.113 97.9875 685.67C103.218 679.869 103.218 679.869 109.53 674.127Z" fill="#3A3738"/>
<path d="M194.175 535.618C199.42 536.109 199.42 536.109 204.771 536.61C212.8 537.389 220.806 538.399 228.803 539.465C226.671 562.909 221.379 582.706 213.413 604.873C200.716 603.603 188.019 602.333 174.938 601.025C173.747 607.135 172.557 613.246 171.331 619.541C169.208 630.438 166.912 640.492 163.395 651.042C152.971 649.951 142.552 648.824 132.134 647.676C129.208 647.373 126.282 647.071 123.267 646.759C106.223 644.849 91.0539 641.793 74.9026 635.652C80.6965 600.761 96.1926 572.646 123.477 550.046C147.553 533.518 165.795 531.802 194.175 535.618Z" fill="#03AFEC"/>
<path d="M298.057 820.333C299.327 820.333 300.597 820.333 301.905 820.333C303.978 867.458 302.753 908.379 287.251 953.192C283.491 964.139 280.724 974.392 278.82 985.775C255.623 983.804 232.573 981.659 209.565 978.08C207.661 972.366 207.661 972.366 205.718 966.538C214.171 951.508 222.543 941.781 236.498 931.91C234.509 930.001 232.52 928.091 230.471 926.124C209.692 904.695 209.692 904.695 209.084 887.664C213.908 872.657 219.056 858.038 224.955 843.418C230.453 843.336 230.453 843.336 236.062 843.252C266.437 843.788 266.437 843.788 291.565 829.711C293.707 826.616 295.85 823.521 298.057 820.333Z" fill="#9F94C5"/>
<path d="M155.7 420.193C188.711 420.193 221.723 420.193 255.735 420.193C255.735 431.62 255.735 443.047 255.735 454.82C264.623 454.82 273.51 454.82 282.667 454.82C282.667 473.865 282.667 492.91 282.667 512.532C240.168 513.038 198.141 510.995 155.7 508.685C155.7 479.482 155.7 450.28 155.7 420.193Z" fill="#A7AAAC"/>
<path d="M428.872 454.82C446.648 454.82 464.423 454.82 482.737 454.82C482.737 481.483 482.737 508.146 482.737 535.617C466.232 535.617 449.726 535.617 432.72 535.617C432.72 543.236 432.72 550.854 432.72 558.702C467.001 558.702 501.282 558.702 536.602 558.702C536.602 572.669 536.602 586.635 536.602 601.025C519.97 597.698 510.414 594.117 495.723 586.597C430.545 556.664 365.608 551.359 294.858 547.112C291.613 546.908 288.368 546.705 285.025 546.495C278.855 546.115 272.684 545.766 266.51 545.453C252.185 544.578 244.848 543.749 232.65 535.617C297.403 535.617 362.157 535.617 428.872 535.617C428.872 508.954 428.872 482.291 428.872 454.82Z" fill="#E3E3E5"/>
<path d="M213.413 947.3C215.952 948.57 218.491 949.839 221.108 951.147C219.282 953.131 217.457 955.115 215.577 957.159C207.918 969.107 207.062 979.489 205.718 993.47C209.685 992.994 213.653 992.518 217.741 992.027C235.099 993.707 239.525 997 251.018 1009.2C259.783 1022.87 258.146 1036.94 257.178 1052.63C256.702 1063.58 256.226 1074.53 255.735 1085.81C226.533 1087.08 197.33 1088.35 167.243 1089.66C165.973 1092.2 164.703 1094.74 163.395 1097.35C162.329 1095.18 161.262 1093 160.164 1090.75C158.073 1086.52 158.073 1086.52 155.941 1082.2C154.557 1079.39 153.173 1076.58 151.747 1073.68C148.529 1066.72 148.529 1066.72 144.158 1062.73C139.853 1044.18 139.853 1044.18 144.158 1031.94C179.8 997.317 179.8 997.317 198.023 997.317C197.546 990.295 197.546 990.295 197.061 983.13C196.966 969.745 197.864 966.775 205.718 954.995C208.257 952.456 210.796 949.916 213.413 947.3Z" fill="#3E3F91"/>
<path d="M725.13 604.873C760.681 604.873 796.232 604.873 832.86 604.873C832.86 642.963 832.86 681.053 832.86 720.297C810.006 720.297 787.152 720.297 763.605 720.297C763.605 688.556 763.605 656.814 763.605 624.11C750.908 624.11 738.212 624.11 725.13 624.11C725.13 617.762 725.13 611.413 725.13 604.873Z" fill="#E6E7E8"/>
<path d="M405.788 658.737C451.077 668.976 493.705 682.785 536.67 700.394C552.887 706.847 567.088 710.4 584.696 711.4C588.704 711.653 592.711 711.906 596.84 712.167C601.304 712.382 601.304 712.382 605.857 712.603C601.38 717.212 596.871 721.794 592.226 726.234C585.701 732.567 585.701 732.567 577.242 743.383C571.305 748.252 571.305 748.252 563.535 751.078C550.474 749.296 538.185 745.921 525.451 742.526C497.699 736.196 468.458 740.744 440.415 743.383C405.788 675.136 405.788 675.136 405.788 658.737Z" fill="#FCEE0C"/>
<path d="M174.938 601.025C188.904 601.025 202.87 601.025 217.26 601.025C217.26 603.564 217.26 606.104 217.26 608.72C219.447 609.186 221.634 609.652 223.888 610.133C226.859 610.777 229.83 611.422 232.89 612.087C235.792 612.711 238.693 613.336 241.683 613.98C254.164 616.958 266.482 620.585 278.82 624.11C277.55 663.47 276.281 702.83 274.973 743.383C260.521 731.821 253.517 725.972 243.712 711.881C222.822 684.272 197.16 660.512 163.395 651.042C164.588 644.869 165.793 638.697 167.002 632.526C167.672 629.089 168.341 625.652 169.031 622.111C171.09 612.567 171.09 612.567 174.938 601.025Z" fill="#C9C3DD"/>
<path d="M309.6 208.58C350.23 208.58 390.859 208.58 432.72 208.58C432.72 231.434 432.72 254.288 432.72 277.835C392.09 277.835 351.461 277.835 309.6 277.835C309.6 254.981 309.6 232.127 309.6 208.58Z" fill="#A9ACAF"/>
<path d="M671.265 627.957C687.771 627.957 704.277 627.957 721.282 627.957C722.552 658.43 723.822 688.902 725.13 720.297C737.827 721.567 750.523 722.837 763.605 724.145C763.605 735.572 763.605 746.999 763.605 758.772C733.133 758.772 702.661 758.772 671.265 758.772C671.265 715.604 671.265 672.435 671.265 627.957Z" fill="#D1D2D4"/>
<path d="M32.58 420.193C73.2096 420.193 113.839 420.193 155.7 420.193C155.7 449.395 155.7 478.598 155.7 508.685C181.093 508.685 206.487 508.685 232.65 508.685C232.65 520.112 232.65 531.539 232.65 543.312C231.38 543.312 230.111 543.312 228.802 543.312C228.802 533.155 228.802 522.998 228.802 512.533C203.409 512.533 178.015 512.533 151.852 512.533C151.852 499.836 151.852 487.139 151.852 474.058C112.493 474.058 73.1326 474.058 32.58 474.058C32.58 456.282 32.58 438.507 32.58 420.193Z" fill="#818385"/>
<path d="M817.47 454.82C837.785 454.82 858.1 454.82 879.03 454.82C879.03 475.135 879.03 495.45 879.03 516.38C870.142 516.38 861.255 516.38 852.098 516.38C852.098 545.583 852.098 574.785 852.098 604.873C847.019 604.873 841.94 604.873 836.708 604.873C836.708 644.232 836.708 683.592 836.708 724.145C835.438 724.145 834.168 724.145 832.86 724.145C832.86 683.515 832.86 642.886 832.86 601.025C797.309 601.025 761.758 601.025 725.13 601.025C725.13 594.677 725.13 588.328 725.13 581.788C761.951 581.788 798.771 581.788 836.708 581.788C836.708 588.136 836.708 594.484 836.708 601.025C840.517 601.025 844.326 601.025 848.25 601.025C848.25 573.092 848.25 545.159 848.25 516.38C838.093 516.38 827.935 516.38 817.47 516.38C817.47 496.065 817.47 475.75 817.47 454.82Z" fill="#BEC0C2"/>
<path d="M428.873 331.7C475.851 331.7 522.828 331.7 571.23 331.7C571.23 346.936 571.23 362.172 571.23 377.87C524.252 377.87 477.274 377.87 428.873 377.87C428.873 362.634 428.873 347.398 428.873 331.7Z" fill="#828486"/>
<path d="M532.755 208.58C540.373 208.58 547.991 208.58 555.84 208.58C555.84 225.086 555.84 241.592 555.84 258.597C585.043 258.597 614.245 258.597 644.333 258.597C644.333 273.834 644.333 289.07 644.333 304.767C607.512 304.767 570.691 304.767 532.755 304.767C532.755 273.026 532.755 241.284 532.755 208.58Z" fill="#828486"/>
<path d="M359.618 647.195C405.788 658.738 405.788 658.738 417.871 677.269C420.759 684.569 423.461 691.944 425.987 699.377C427.43 703.114 428.873 706.851 430.36 710.701C440.415 737.201 440.415 737.201 440.415 747.23C429.758 749.811 419.097 752.373 408.433 754.925C405.41 755.659 402.387 756.393 399.272 757.149C394.902 758.191 394.902 758.191 390.443 759.253C387.763 759.898 385.083 760.543 382.322 761.207C375.008 762.62 375.008 762.62 363.465 762.62C362.195 724.53 360.926 686.44 359.618 647.195Z" fill="#07B0E9"/>
<path d="M440.415 789.552C435.336 793.362 430.258 797.171 425.025 801.095C426.295 804.904 427.564 808.713 428.872 812.638C420.714 819.073 412.536 825.481 404.345 831.875C402.024 833.71 399.702 835.545 397.311 837.436C379.727 851.113 379.727 851.113 371.16 851.113C387.959 868.713 406.398 883.168 425.716 897.891C443.874 911.896 443.874 911.896 448.11 920.368C429.117 914.533 411.586 906.907 393.764 898.244C391.061 897.004 388.358 895.765 385.573 894.487C367.577 885.71 357.274 877.353 348.075 858.808C350.961 845.822 350.961 845.822 355.77 835.723C353.449 835.023 351.128 834.324 348.736 833.603C316.616 823.501 316.616 823.501 305.753 812.638C305.753 810.098 305.753 807.559 305.753 804.943C323.142 802.346 340.537 799.793 357.934 797.247C365.303 796.146 365.303 796.146 372.821 795.023C377.594 794.329 382.368 793.634 387.286 792.919C391.659 792.274 396.031 791.63 400.536 790.965C413.932 789.503 426.95 789.313 440.415 789.552Z" fill="#63C0C7"/>
<path d="M317.295 58.5275C317.295 85.1907 317.295 111.854 317.295 139.325C274.126 139.325 230.957 139.325 186.48 139.325C192.828 134.246 199.177 129.168 205.717 123.935C212.681 111.944 212.681 111.944 217.26 100.85C233.766 100.85 250.272 100.85 267.277 100.85C268.706 95.2952 270.134 89.7403 271.606 84.0172C277.218 67.0746 277.218 67.0746 290.122 60.2108C301.905 58.5275 301.905 58.5275 317.295 58.5275Z" fill="#4E494B"/>
<path d="M817.47 358.633C837.785 358.633 858.1 358.633 879.03 358.633C879.03 390.374 879.03 422.116 879.03 454.82C858.715 454.82 838.4 454.82 817.47 454.82C817.47 423.078 817.47 391.336 817.47 358.633Z" fill="#FCFCFC"/>
<path d="M609.705 708.755C628.683 705.027 628.683 705.027 640.485 708.755C652.677 721.667 662.031 735.949 671.265 751.077C665.384 766.313 656.091 773.467 643.13 783.06C639.495 785.822 635.859 788.585 632.114 791.431C621.247 797.247 621.247 797.247 611.268 797.037C600.679 792.877 594.213 787.91 585.899 780.174C583.305 777.799 580.711 775.423 578.038 772.975C573.147 768.3 568.32 763.557 563.535 758.772C563.535 754.963 563.535 751.154 563.535 747.23C571.681 739.37 571.681 739.37 582.292 731.119C585.773 728.366 589.255 725.613 592.842 722.777C602.01 716.45 602.01 716.45 609.705 716.45C609.705 713.911 609.705 711.371 609.705 708.755Z" fill="#3F3F93"/>
<path d="M644.333 173.953C688.771 173.953 733.21 173.953 778.995 173.953C778.995 201.885 778.995 229.818 778.995 258.598C770.107 258.598 761.22 258.598 752.063 258.598C752.063 240.822 752.063 223.047 752.063 204.733C716.512 204.733 680.961 204.733 644.333 204.733C644.333 194.575 644.333 184.418 644.333 173.953Z" fill="#1E1C1C"/>
<path d="M640.485 208.58C677.306 208.58 714.126 208.58 752.063 208.58C752.063 225.086 752.063 241.592 752.063 258.598C715.242 258.598 678.421 258.598 640.485 258.598C640.485 242.092 640.485 225.586 640.485 208.58Z" fill="#FBFBFB"/>
<path d="M340.38 1228.17C330.796 1232.96 327.257 1231.16 317.295 1228.17C315.822 1231.47 315.822 1231.47 314.319 1234.84C309.096 1244.49 302.983 1251.76 295.653 1259.91C293.223 1262.63 290.792 1265.35 288.288 1268.15C286.434 1270.19 284.579 1272.23 282.667 1274.34C268.795 1272.27 256.65 1269.36 244.192 1262.79C231.863 1244.95 227.957 1226.53 228.802 1205.08C219.915 1205.08 211.027 1205.08 201.87 1205.08C201.87 1203.81 201.87 1202.54 201.87 1201.23C254.61 1190.13 294.883 1201.12 340.38 1228.17Z" fill="#EE8433"/>
<path d="M121.072 778.01C135.794 784.008 144.721 793.674 155.7 804.942C176.394 815.29 211.467 811.306 233.612 805.664C245.25 801.777 245.25 801.777 251.887 789.552C261.41 797.171 261.41 797.171 271.125 804.942C267.066 817.593 263.171 820.483 251.437 827.321C246.639 829.608 241.819 831.846 236.978 834.039C218.21 842.635 218.21 842.635 200.923 853.833C194.175 858.808 194.175 858.808 181.911 859.288C159.859 852.781 141.016 840.297 127.851 821.069C121.127 806.76 119.931 793.605 121.072 778.01Z" fill="#04ACE8"/>
<path d="M675.112 497.143C718.281 497.143 761.45 497.143 805.927 497.143C805.927 509.839 805.927 522.536 805.927 535.618C762.759 535.618 719.59 535.618 675.112 535.618C675.112 522.921 675.112 510.224 675.112 497.143Z" fill="#E4E5E6"/>
<path d="M351.922 866.502C355.255 869.439 358.588 872.375 362.022 875.4C370.891 883.011 376.197 886.172 387.542 890.294C398.093 897.282 398.093 897.282 400.989 905.115C403.004 915.406 404.267 925.563 405.307 935.998C405.753 939.477 406.199 942.956 406.659 946.541C409.469 969.937 410.152 993.01 409.635 1016.56C392.603 1010.88 390.727 1001.55 382.702 985.775C382.702 983.236 382.702 980.696 382.702 978.08C379.251 976.414 379.251 976.414 375.729 974.713C367.312 970.385 367.312 970.385 355.77 962.69C354.106 952.987 354.106 952.987 353.801 940.898C353.665 936.583 353.528 932.268 353.388 927.822C353.301 923.299 353.214 918.776 353.125 914.115C352.993 909.562 352.862 905.009 352.727 900.318C352.408 889.047 352.143 877.776 351.922 866.502Z" fill="#FCC926"/>
<path d="M817.47 285.53C837.785 285.53 858.1 285.53 879.03 285.53C879.03 309.654 879.03 333.778 879.03 358.633C858.715 358.633 838.4 358.633 817.47 358.633C817.47 334.509 817.47 310.385 817.47 285.53Z" fill="#D2D3D5"/>
<path d="M155.7 424.04C187.442 424.04 219.184 424.04 251.887 424.04C251.887 434.197 251.887 444.355 251.887 454.82C245.539 454.82 239.191 454.82 232.65 454.82C232.65 461.168 232.65 467.517 232.65 474.057C207.256 474.057 181.863 474.057 155.7 474.057C155.7 457.552 155.7 441.046 155.7 424.04Z" fill="#BCBEC0"/>
<path d="M829.013 722.702C832.941 722.419 832.941 722.419 836.948 722.131C844.403 724.145 844.403 724.145 851.061 732.381C856.586 744.827 857.368 753.388 857.147 766.948C857.133 770.926 857.118 774.904 857.102 779.002C855.945 789.552 855.945 789.552 848.25 801.095C845.711 801.095 843.171 801.095 840.555 801.095C840.555 785.859 840.555 770.623 840.555 754.925C806.887 759.792 806.887 759.792 782.843 781.857C784.112 784.397 785.382 786.936 786.69 789.552C785.42 792.092 784.151 794.631 782.843 797.247C777.367 799.033 777.367 799.033 771.781 800.855C759.803 803.901 759.803 803.901 753.505 811.435C750.887 813.935 750.887 813.935 748.215 816.485C739.799 815.283 739.799 815.283 732.825 812.637C744.601 778.181 773.549 749.676 802.08 727.992C811.908 724.717 818.851 723.203 829.013 722.702Z" fill="#0DB0E6"/>
<path d="M595.908 786.426C614.124 793.12 627.183 798.436 636.637 816.485C636.99 830.59 632.874 835.615 624.133 846.784C613.552 854.96 613.552 854.96 604.55 854.524C591.942 850.322 584.13 843.897 573.875 835.482C554.31 820.61 545.155 818.232 521.212 820.332C512.661 814.636 512.661 814.636 505.822 808.79C511.67 807.741 511.67 807.741 517.635 806.671C522.836 805.696 528.036 804.719 533.236 803.74C535.795 803.286 538.354 802.833 540.991 802.365C553.859 799.905 564.198 796.903 575.859 790.83C586.62 785.705 586.62 785.705 595.908 786.426Z" fill="#F6E90E"/>
<path d="M232.65 539.465C247.886 540.735 263.122 542.004 278.82 543.313C278.82 569.976 278.82 596.639 278.82 624.11C236.051 616.896 236.051 616.896 217.26 608.72C218.76 583.483 222.728 562.761 232.65 539.465Z" fill="#F9EE10"/>
<path d="M555.84 208.58C583.773 208.58 611.706 208.58 640.485 208.58C640.485 225.086 640.485 241.592 640.485 258.598C612.552 258.598 584.619 258.598 555.84 258.598C555.84 242.092 555.84 225.586 555.84 208.58Z" fill="#D1D2D4"/>
<path d="M675.113 350.938C700.506 350.938 725.9 350.938 752.063 350.938C752.063 361.095 752.063 371.252 752.063 381.718C727.939 381.718 703.815 381.718 678.96 381.718C678.96 419.808 678.96 457.898 678.96 497.143C677.69 497.143 676.421 497.143 675.113 497.143C675.113 459.052 675.113 420.962 675.113 381.718C595.123 381.718 515.133 381.718 432.72 381.718C432.72 405.841 432.72 429.965 432.72 454.82C431.45 454.82 430.181 454.82 428.873 454.82C428.873 429.427 428.873 404.033 428.873 377.87C510.132 377.87 591.391 377.87 675.113 377.87C675.113 368.982 675.113 360.095 675.113 350.938Z" fill="#949497"/>
<path d="M224.955 843.417C242.73 843.417 260.506 843.417 278.82 843.417C267.393 871.35 255.966 899.283 244.192 928.062C232.65 928.062 232.65 928.062 226.338 923.118C209.629 904.666 209.629 904.666 209.324 887.904C213.861 872.693 219.015 858.139 224.955 843.417Z" fill="#F5ACAB"/>
<path d="M879.03 358.633C891.727 358.633 904.424 358.633 917.505 358.633C917.505 389.105 917.505 419.577 917.505 450.972C904.808 450.972 892.112 450.972 879.03 450.972C879.03 420.5 879.03 390.028 879.03 358.633Z" fill="#D2D3D5"/>
<path d="M773.224 795.324C782.842 797.247 782.842 797.247 790.057 804.942C795.786 820.221 795.748 831.795 790.537 847.265C782.378 856.908 776.684 862.068 763.86 863.467C759.925 863.66 759.925 863.66 755.91 863.857C745.522 864.566 741.774 865.26 734.268 872.695C728.28 880.971 728.28 880.971 721.283 893.435C718.743 892.165 716.204 890.896 713.588 889.588C713.588 884.509 713.588 879.43 713.588 874.198C716.762 871.103 719.936 868.008 723.206 864.819C733.839 855.943 733.839 855.943 734.027 844.139C733.631 841.362 733.234 838.584 732.825 835.723C730.286 834.453 727.746 833.183 725.13 831.875C727.775 822.497 727.775 822.497 732.825 812.637C742.203 810.233 742.203 810.233 752.062 808.79C753.967 806.806 755.872 804.822 757.834 802.778C763.605 797.247 763.605 797.247 773.224 795.324Z" fill="#F5CB2A"/>
<path d="M107.862 828.508C132.385 827.417 147.483 834.013 165.845 849.91C168.441 852.41 168.441 852.41 171.09 854.96C168.732 866.355 166.266 871.814 159.548 881.892C130.775 880.014 103.031 876.76 74.9026 870.35C90.0388 834.585 90.0388 834.585 107.862 828.508Z" fill="#E93036"/>
<path d="M875.183 454.82C876.452 454.82 877.722 454.82 879.03 454.82C879.03 475.135 879.03 495.45 879.03 516.38C870.142 516.38 861.255 516.38 852.098 516.38C852.098 545.583 852.098 574.785 852.098 604.873C847.019 604.873 841.94 604.873 836.708 604.873C836.708 644.232 836.708 683.592 836.708 724.145C835.438 724.145 834.168 724.145 832.86 724.145C832.86 683.515 832.86 642.886 832.86 601.025C797.309 601.025 761.758 601.025 725.13 601.025C725.13 594.677 725.13 588.328 725.13 581.788C761.951 581.788 798.771 581.788 836.708 581.788C836.708 588.136 836.708 594.484 836.708 601.025C840.517 601.025 844.326 601.025 848.25 601.025C848.25 571.822 848.25 542.62 848.25 512.533C857.138 512.533 866.025 512.533 875.183 512.533C875.183 493.487 875.183 474.442 875.183 454.82Z" fill="#848687"/>
<path d="M301.905 820.333C308.184 892.843 308.184 892.843 294.15 911.365C283.892 917.369 274.869 921.041 263.43 924.215C259.194 925.629 254.959 927.042 250.595 928.498C245.521 930.187 245.521 930.187 240.345 931.91C245.109 919.548 249.936 907.211 254.773 894.878C256.112 891.401 257.451 887.924 258.831 884.342C284.061 820.333 284.061 820.333 301.905 820.333Z" fill="#C9C2DE"/>
<path d="M725.13 627.957C736.557 627.957 747.984 627.957 759.757 627.957C759.757 658.43 759.757 688.902 759.757 720.297C748.33 720.297 736.903 720.297 725.13 720.297C725.13 689.825 725.13 659.353 725.13 627.957Z" fill="#333031"/>
<path d="M655.875 954.995C657.145 958.804 658.414 962.613 659.722 966.537C653.719 976.624 647.577 985.91 640.725 995.394C638.783 998.132 636.84 1000.87 634.839 1003.69C630.899 1009.24 626.944 1014.77 622.972 1020.29C618.054 1027.18 613.264 1034.14 608.533 1041.16C605.983 1044.86 603.434 1048.57 600.808 1052.38C597.497 1057.24 597.497 1057.24 594.12 1062.2C585.043 1072.15 575.793 1076.62 563.535 1081.96C562.693 1075.49 562.102 1068.99 561.611 1062.48C561.254 1058.87 560.897 1055.25 560.529 1051.53C565.313 1032.61 579.544 1024.59 594.315 1012.71C599.854 1007.68 605.345 1002.59 610.787 997.453C613.465 994.936 616.144 992.419 618.903 989.825C621.581 987.298 624.259 984.771 627.019 982.168C629.816 979.537 632.613 976.906 635.495 974.195C642.293 967.8 649.086 961.4 655.875 954.995Z" fill="#EF8632"/>
<path d="M767.453 362.48C778.88 362.48 790.307 362.48 802.08 362.48C802.08 391.683 802.08 420.885 802.08 450.972C790.653 450.972 779.226 450.972 767.453 450.972C767.453 421.77 767.453 392.567 767.453 362.48Z" fill="#D2D3D5"/>
<path d="M413.482 820.332C391.762 842.656 391.762 842.656 378.855 851.112C376.316 851.112 373.776 851.112 371.16 851.112C387.959 868.713 406.398 883.168 425.716 897.891C443.874 911.896 443.874 911.896 448.11 920.368C429.117 914.533 411.586 906.907 393.764 898.244C391.061 897.004 388.358 895.765 385.573 894.487C367.086 885.471 357.494 877.271 348.075 858.807C349.999 848.948 349.999 848.948 355.77 839.57C357.595 835.999 359.42 832.428 361.301 828.749C376.895 815.437 393.8 818.805 413.482 820.332Z" fill="#F4F1F2"/>
<path d="M367.313 1035.79C361.82 1050.38 355.145 1063.77 347.594 1077.39C345.521 1081.15 343.448 1084.9 341.312 1088.77C339.735 1091.6 338.157 1094.43 336.532 1097.35C311.043 1097.83 311.043 1097.83 298.057 1093.51C298.604 1087.41 299.169 1081.32 299.741 1075.23C300.053 1071.84 300.366 1068.44 300.688 1064.95C301.76 1056.21 303.397 1048.11 305.752 1039.64C326.333 1037.36 346.57 1035.25 367.313 1035.79Z" fill="#F9EB0B"/>
<path d="M582.772 651.042C597.504 657.121 606.965 666.512 618.121 677.735C621.509 681.102 624.896 684.47 628.386 687.939C636.637 697.213 636.637 697.213 640.485 708.755C630.328 708.755 620.17 708.755 609.705 708.755C608.435 711.294 607.166 713.834 605.857 716.45C590.621 715.18 575.385 713.911 559.688 712.603C562.897 696.555 566.566 685.534 573.394 671.001C575.145 667.247 576.896 663.492 578.7 659.624C580.044 656.792 581.388 653.96 582.772 651.042Z" fill="#EA3337"/>
<path d="M555.84 173.953C585.043 173.953 614.245 173.953 644.333 173.953C644.333 184.11 644.333 194.267 644.333 204.733C615.13 204.733 585.927 204.733 555.84 204.733C555.84 194.575 555.84 184.418 555.84 173.953Z" fill="#A8ABAE"/>
<path d="M513.518 100.85C571.923 100.85 630.328 100.85 690.502 100.85C690.502 105.929 690.502 111.007 690.502 116.24C632.097 116.24 573.692 116.24 513.518 116.24C513.518 111.161 513.518 106.083 513.518 100.85Z" fill="#848688"/>
<path d="M155.7 474.057C181.093 474.057 206.487 474.057 232.65 474.057C232.65 485.485 232.65 496.912 232.65 508.685C207.256 508.685 181.863 508.685 155.7 508.685C155.7 497.258 155.7 485.831 155.7 474.057Z" fill="#96989B"/>
<path d="M255.735 1020.4C260.417 1022.86 265.099 1025.32 269.923 1027.86C281.835 1033.85 292.396 1037.97 305.753 1039.64C305.311 1045.73 304.82 1051.83 304.31 1057.92C304.042 1061.31 303.774 1064.7 303.498 1068.2C301.905 1078.11 301.905 1078.11 294.21 1093.51C281.513 1090.97 268.816 1088.43 255.735 1085.81C255.735 1064.23 255.735 1042.64 255.735 1020.4Z" fill="#EF8432"/>
<path d="M459.652 816.485C464.041 823.218 464.041 823.218 468.309 831.875C473.02 840.354 473.02 840.354 478.89 847.265C492.356 851.112 492.356 851.112 505.823 847.265C517.011 840.12 517.011 840.12 525.06 831.875C530.139 834.414 535.217 836.954 540.45 839.57C536.603 851.112 536.603 851.112 530.651 855.651C517.007 860.214 503.674 859.615 489.471 859.288C486.604 859.254 483.737 859.219 480.784 859.183C473.739 859.093 466.696 858.955 459.652 858.807C459.652 860.077 459.652 861.347 459.652 862.655C455.843 864.559 455.843 864.559 451.957 866.502C442.79 862.67 442.79 862.67 432.239 857.124C428.738 855.304 425.236 853.484 421.628 851.608C418.94 850.175 416.252 848.742 413.482 847.265C413.482 844.726 413.482 842.186 413.482 839.57C420.651 833.769 420.651 833.769 430.075 827.547C433.155 825.473 436.235 823.4 439.408 821.264C448.11 816.485 448.11 816.485 459.652 816.485Z" fill="#F7F0CE"/>
<path d="M105.683 693.365C107.508 696.777 109.333 700.19 111.213 703.705C122.667 722.323 143.872 728.08 163.395 735.688C112.519 761.418 112.519 761.418 93.6591 755.887C90.0088 754.3 86.3585 752.713 82.5976 751.078C85.1369 749.808 87.6763 748.538 90.2926 747.23C88.388 743.064 88.388 743.064 86.4451 738.814C82.4175 727.486 80.7723 720.619 82.5976 708.755C95.0759 693.365 95.0759 693.365 105.683 693.365Z" fill="#EB893B"/>
<path d="M232.65 535.618C297.403 535.618 362.157 535.618 428.872 535.618C428.872 543.236 428.872 550.854 428.872 558.703C423.897 558.122 418.922 557.541 413.796 556.943C395.369 554.898 376.941 553.482 358.445 552.225C351.772 551.748 345.099 551.27 338.426 550.79C328.042 550.048 317.657 549.316 307.27 548.613C297.153 547.924 287.04 547.193 276.926 546.454C272.255 546.153 272.255 546.153 267.49 545.846C252.986 544.752 244.981 543.839 232.65 535.618Z" fill="#F9F5F0"/>
<path d="M244.192 774.162C246.98 775.973 249.767 777.783 252.639 779.648C280.359 797.51 280.359 797.51 309.6 812.637C308.33 827.874 307.061 843.11 305.752 858.807C304.483 858.807 303.213 858.807 301.905 858.807C300.635 847.38 299.366 835.953 298.057 824.18C295.915 827.354 293.772 830.528 291.565 833.799C283.256 842.324 278.742 843.427 266.676 844.966C253.84 845.093 241.538 845.068 228.802 843.417C226.263 840.878 223.724 838.339 221.107 835.722C224.396 834.145 227.684 832.568 231.072 830.943C235.322 828.87 239.573 826.797 243.952 824.661C250.313 821.581 250.313 821.581 256.802 818.439C267.639 813.728 267.639 813.728 271.125 804.942C268.824 803.911 266.522 802.879 264.151 801.816C255.665 797.209 250.211 793.228 244.192 785.705C244.192 781.896 244.192 778.087 244.192 774.162Z" fill="#EA873F"/>
<path d="M28.7325 577.94C41.3228 584.235 43.7591 595.458 48.6463 608.194C58.6401 646.227 51.6255 689.283 47.97 727.992C19.3764 685.102 27.5731 626.955 28.7325 577.94Z" fill="#05ACE7"/>
<path d="M174.938 601.025C188.904 601.025 202.87 601.025 217.26 601.025C212.181 622.609 207.103 644.194 201.87 666.432C196.791 663.893 191.713 661.354 186.48 658.737C178.815 656.084 171.124 653.502 163.395 651.042C164.588 644.869 165.793 638.697 167.002 632.526C167.672 629.089 168.341 625.652 169.031 622.111C171.09 612.567 171.09 612.567 174.938 601.025Z" fill="#A03C97"/>
<path d="M521.213 1170.46C523.752 1171.72 526.291 1172.99 528.908 1174.3C498.977 1196.86 468.025 1217.39 436.447 1237.55C424.54 1245.16 412.974 1253.15 401.459 1261.35C387.433 1270.87 376.493 1273.62 359.618 1274.34C373.259 1250.3 373.259 1250.3 382.703 1243.56C389.13 1242.72 389.13 1242.72 395.688 1241.87C412.079 1239.33 416.323 1234.87 428.873 1224.32C438.847 1218.6 448.996 1213.27 459.157 1207.89C476.947 1198.05 493.932 1187.03 511.008 1176C514.375 1174.17 517.743 1172.34 521.213 1170.46Z" fill="#414093"/>
<path d="M678.96 350.938C703.084 350.938 727.208 350.938 752.062 350.938C752.062 359.825 752.062 368.713 752.062 377.87C727.939 377.87 703.815 377.87 678.96 377.87C678.96 368.982 678.96 360.095 678.96 350.938Z" fill="#CED0D1"/>
<path d="M840.555 754.925C844.927 790.805 835.159 811.166 813.623 839.57C809.775 831.875 809.775 831.875 813.382 819.371C817.188 805.939 818.144 795.682 817.47 781.858C803.817 781.547 792.138 782.076 778.995 785.705C782.572 781.272 786.186 776.869 789.816 772.479C791.825 770.024 793.833 767.569 795.903 765.04C808.628 752.129 823.541 754.604 840.555 754.925Z" fill="#F8CB27"/>
<path d="M767.453 358.633C783.958 358.633 800.464 358.633 817.47 358.633C817.47 390.374 817.47 422.116 817.47 454.82C813.661 454.82 809.852 454.82 805.927 454.82C805.927 468.786 805.927 482.753 805.927 497.143C804.658 497.143 803.388 497.143 802.08 497.143C802.08 483.176 802.08 469.21 802.08 454.82C790.653 454.82 779.226 454.82 767.453 454.82C767.453 453.55 767.453 452.281 767.453 450.973C778.88 450.973 790.307 450.973 802.08 450.973C802.08 421.77 802.08 392.567 802.08 362.48C790.653 362.48 779.226 362.48 767.453 362.48C767.453 361.21 767.453 359.941 767.453 358.633Z" fill="#AFB0B3"/>
<path d="M444.263 562.55C474.735 562.55 505.207 562.55 536.603 562.55C536.603 575.247 536.603 587.943 536.603 601.025C520.383 598.578 507.336 592.976 492.597 585.875C476.689 578.232 461.118 571.66 444.263 566.397C444.263 565.128 444.263 563.858 444.263 562.55Z" fill="#F9F6F9"/>
<path d="M536.603 497.143C546.76 497.143 556.917 497.143 567.383 497.143C567.383 517.457 567.383 537.772 567.383 558.703C557.225 558.703 547.068 558.703 536.603 558.703C536.603 538.388 536.603 518.073 536.603 497.143Z" fill="#AAADB0"/>
<path d="M209.565 1105.05C216.588 1107.67 216.588 1107.67 223.753 1110.34C265.059 1123.85 307.187 1125.41 350.28 1126.82C353.807 1126.94 357.335 1127.06 360.97 1127.19C364.137 1127.28 367.305 1127.37 370.568 1127.46C378.855 1128.13 378.855 1128.13 390.397 1131.98C389.128 1135.79 387.858 1139.6 386.55 1143.52C371.502 1143.35 356.46 1143.08 341.415 1142.72C333.842 1142.56 326.267 1142.48 318.693 1142.4C283.866 1141.51 242.654 1139.62 216.298 1113.7C214.076 1110.85 211.854 1107.99 209.565 1105.05Z" fill="#F6A28A"/>
<path d="M136.462 754.925C147.229 756.41 151.162 758.008 158.586 766.227C163.395 774.162 163.395 774.162 163.395 781.857C176.092 783.127 188.788 784.397 201.87 785.705C204.409 780.626 206.949 775.548 209.565 770.315C217.02 773.201 217.02 773.201 224.955 778.01C227.841 786.186 227.841 786.186 228.802 793.4C207.787 800.405 180.296 801.974 159.232 794.347C148.162 787.201 138.941 778.003 132.615 766.467C133.885 762.658 135.154 758.849 136.462 754.925Z" fill="#E2E4E5"/>
<path d="M455.805 808.79C455.805 811.329 455.805 813.869 455.805 816.485C448.501 822.286 448.501 822.286 438.972 828.508C435.848 830.582 432.723 832.655 429.504 834.791C421.178 839.57 421.178 839.57 413.483 839.57C412.213 843.379 410.943 847.188 409.635 851.112C400.738 859.769 400.738 859.769 390.397 866.502C381.741 866.262 381.741 866.262 375.007 862.655C373.738 858.846 372.468 855.037 371.16 851.112C378.612 845.498 386.067 839.887 393.524 834.28C396.682 831.899 396.682 831.899 399.904 829.47C420.211 814.209 429.973 807.815 455.805 808.79Z" fill="#E6373B"/>
<path d="M405.788 962.69C419.521 980.364 430.235 999.591 441.377 1018.96C443.559 1022.68 445.741 1026.4 447.99 1030.23C450.033 1033.78 452.077 1037.33 454.182 1040.99C456.063 1044.24 457.944 1047.49 459.882 1050.83C461.076 1053.49 462.27 1056.14 463.5 1058.88C462.23 1061.42 460.961 1063.96 459.653 1066.57C414.378 1033.9 414.378 1033.9 408.703 1007.73C406.545 992.731 405.864 977.836 405.788 962.69Z" fill="#5EBBC6"/>
<path d="M432.72 158.562C433.99 158.562 435.259 158.562 436.568 158.562C436.568 173.799 436.568 189.035 436.568 204.732C469.579 204.732 502.591 204.732 536.603 204.732C536.603 206.002 536.603 207.272 536.603 208.58C503.591 208.58 470.579 208.58 436.568 208.58C436.568 231.434 436.568 254.288 436.568 277.835C435.298 277.835 434.028 277.835 432.72 277.835C432.72 254.981 432.72 232.127 432.72 208.58C392.09 208.58 351.461 208.58 309.6 208.58C309.6 207.31 309.6 206.041 309.6 204.732C350.23 204.732 390.859 204.732 432.72 204.732C432.72 189.496 432.72 174.26 432.72 158.562Z" fill="#959698"/>
<path d="M321.143 143.172C357.963 143.172 394.784 143.172 432.72 143.172C432.72 146.982 432.72 150.791 432.72 154.715C395.899 154.715 359.079 154.715 321.143 154.715C321.143 150.906 321.143 147.097 321.143 143.172Z" fill="#BDBFC1"/>
<path d="M455.805 97.0025C473.58 97.0025 491.356 97.0025 509.67 97.0025C509.67 104.621 509.67 112.239 509.67 120.088C491.895 120.088 474.119 120.088 455.805 120.088C455.805 112.469 455.805 104.851 455.805 97.0025Z" fill="#B9BBBD"/>
<path d="M340.38 1228.17C337.841 1229.44 335.301 1230.71 332.685 1232.01C324.87 1229.29 324.87 1229.29 315.371 1225.04C278.423 1209.73 241.555 1207.26 201.87 1205.08C201.87 1203.81 201.87 1202.54 201.87 1201.23C254.61 1190.13 294.883 1201.12 340.38 1228.17Z" fill="#353B3F"/>
<path d="M521.213 1170.46C523.752 1171.72 526.291 1172.99 528.908 1174.3C497.743 1197.64 465.636 1218.95 432.72 1239.71C430.181 1234.63 427.641 1229.55 425.025 1224.32C427.819 1223.28 430.613 1222.23 433.491 1221.16C443.98 1216.74 453.06 1211.66 462.703 1205.64C467.766 1202.53 467.766 1202.53 472.931 1199.35C480.002 1194.96 487.066 1190.56 494.122 1186.15C497.482 1184.09 500.843 1182.03 504.305 1179.91C507.366 1178 510.427 1176.1 513.58 1174.13C516.099 1172.92 518.618 1171.71 521.213 1170.46Z" fill="#504C8A"/>
<path d="M560.649 848.467C562.871 849.34 565.093 850.213 567.383 851.112C567.383 862.655 567.383 862.655 562.438 868.126C548.935 878.215 542.999 881.933 525.541 881.652C521.573 880.462 517.605 879.271 513.517 878.045C512.248 875.506 510.978 872.966 509.67 870.35C513.796 868.683 517.923 867.017 522.174 865.3C531.189 861.509 537.287 858.26 545.019 852.074C551.992 847.265 551.992 847.265 560.649 848.467Z" fill="#BABEDC"/>
<path d="M448.11 851.112C451.919 852.382 455.728 853.652 459.652 854.96C464.784 855.514 469.934 855.906 475.088 856.177C479.458 856.419 479.458 856.419 483.917 856.666C488.452 856.893 488.452 856.893 493.078 857.124C497.679 857.373 497.679 857.373 502.373 857.628C509.935 858.035 517.497 858.423 525.06 858.807C523.79 862.617 522.521 866.426 521.213 870.35C509.869 874.131 502.258 874.714 490.433 874.678C485.433 874.693 485.433 874.693 480.333 874.708C471.195 874.197 471.195 874.197 459.652 870.35C453.16 860.491 453.16 860.491 448.11 851.112Z" fill="#4E5650"/>
<path d="M337.494 1023.29C341.641 1023.43 345.787 1023.57 350.059 1023.71C354.79 1023.98 354.79 1023.98 359.618 1024.25C360.887 1028.06 362.157 1031.87 363.465 1035.79C348.701 1039.27 335.09 1040.05 319.94 1039.88C315.829 1039.85 311.717 1039.81 307.481 1039.78C304.371 1039.73 301.261 1039.69 298.057 1039.64C310.467 1024.34 318.055 1022.44 337.494 1023.29Z" fill="#3E3531"/>
<path d="M109.53 727.992C116.346 728.432 123.159 728.923 129.97 729.435C135.661 729.837 135.661 729.837 141.467 730.247C151.853 731.84 151.853 731.84 163.395 739.535C157.305 741.383 151.212 743.226 145.119 745.066C140.031 746.606 140.031 746.606 134.839 748.177C126.437 750.634 118.039 752.877 109.53 754.925C109.53 746.037 109.53 737.15 109.53 727.992Z" fill="#C5BED7"/>
<path d="M209.565 1105.05C216.588 1107.67 216.588 1107.67 223.753 1110.34C246.722 1118.08 270.25 1121.14 294.21 1124.28C294.21 1125.55 294.21 1126.82 294.21 1128.13C291.353 1128.69 288.496 1129.24 285.553 1129.82C275.423 1131.66 275.423 1131.66 267.698 1134.44C252.096 1137.1 238.299 1127.91 224.955 1120.44C215.096 1111.78 215.096 1111.78 209.565 1105.05Z" fill="#F59B84"/>
<path d="M525.06 831.875C530.139 834.414 535.217 836.954 540.45 839.57C536.603 851.113 536.603 851.113 529.809 855.651C520.223 859.171 513.109 859.588 502.937 859.289C499.862 859.219 496.787 859.15 493.619 859.078C491.298 858.989 488.976 858.9 486.585 858.808C492.773 846.431 504.999 844.777 517.365 839.57C519.904 837.031 522.444 834.491 525.06 831.875Z" fill="#F2EECC"/>
<path d="M528.908 824.18C541.78 825.956 550.056 830.97 559.687 839.57C559.687 842.109 559.687 844.649 559.687 847.265C548.292 855.622 538.5 862.022 525.06 866.502C523.79 862.693 522.521 858.884 521.213 854.96C526.291 852.421 531.37 849.881 536.603 847.265C533.615 835.436 533.615 835.436 525.06 828.027C526.33 826.758 527.599 825.488 528.908 824.18Z" fill="#424244"/>
<path d="M782.842 862.655C785.382 863.925 787.921 865.194 790.537 866.502C780.38 880.469 770.223 894.435 759.758 908.825C758.488 905.016 757.218 901.207 755.91 897.283C748.292 899.822 740.674 902.361 732.825 904.978C748.1 888.748 764.792 875.689 782.842 862.655Z" fill="#D2C647"/>
<path d="M425.025 831.875C442.532 837.711 450.036 851.762 459.653 866.502C443.361 861.46 428.587 855.177 413.482 847.265C413.482 844.726 413.482 842.186 413.482 839.57C417.292 837.031 421.101 834.491 425.025 831.875Z" fill="#EEE517"/>
<path d="M209.565 770.315C217.02 773.201 217.02 773.201 224.955 778.01C226.225 783.089 227.494 788.167 228.803 793.4C212.297 793.4 195.791 793.4 178.785 793.4C190.328 785.705 190.328 785.705 201.87 785.705C204.409 780.626 206.949 775.548 209.565 770.315Z" fill="#F6F6F6"/>
<path d="M817.47 497.143C827.627 497.143 837.785 497.143 848.25 497.143C848.25 503.491 848.25 509.839 848.25 516.38C838.093 516.38 827.935 516.38 817.47 516.38C817.47 510.032 817.47 503.683 817.47 497.143Z" fill="#AEB0B3"/>
<path d="M390.397 1131.98C389.128 1135.79 387.858 1139.6 386.55 1143.52C349.729 1142.25 312.909 1140.98 274.972 1139.68C274.972 1138.41 274.972 1137.14 274.972 1135.83C279.283 1135.68 279.283 1135.68 283.68 1135.54C296.649 1135.09 309.617 1134.62 322.585 1134.14C327.108 1133.99 331.632 1133.84 336.292 1133.69C340.607 1133.52 344.922 1133.36 349.367 1133.2C353.357 1133.06 357.346 1132.92 361.457 1132.77C386.621 1130.72 386.621 1130.72 390.397 1131.98Z" fill="#E97169"/>
<path d="M475.043 831.875C483.94 830.673 483.94 830.673 494.28 831.875C501.254 841.494 501.254 841.494 505.822 851.112C492.837 851.834 492.837 851.834 478.89 851.112C476.351 847.303 473.811 843.494 471.195 839.57C472.465 837.031 473.734 834.491 475.043 831.875Z" fill="#1A9BCF"/>
<path d="M805.927 454.82C809.737 454.82 813.546 454.82 817.47 454.82C817.47 468.786 817.47 482.753 817.47 497.143C813.661 497.143 809.852 497.143 805.927 497.143C805.927 483.176 805.927 469.21 805.927 454.82Z" fill="#FBFBFB"/>
<path d="M205.718 993.47C217.981 992.027 217.981 992.027 232.65 993.47C240.885 1000.44 245.693 1007.54 251.888 1016.56C244.269 1016.56 236.651 1016.56 228.803 1016.56C227.85 1013.46 226.898 1010.37 225.917 1007.18C222.176 996.659 222.176 996.659 212.932 994.191C210.551 993.953 208.17 993.715 205.718 993.47Z" fill="#4B303F"/>
<path d="M194.175 770.315C196.714 775.394 199.254 780.472 201.87 785.705C178.575 786.456 178.575 786.456 171.09 785.705C168.551 783.166 166.011 780.626 163.395 778.01C175.814 769.73 179.878 769.542 194.175 770.315Z" fill="#1997CD"/>
<path d="M232.65 454.82C238.998 454.82 245.347 454.82 251.887 454.82C251.887 461.168 251.887 467.517 251.887 474.057C245.539 474.057 239.191 474.057 232.65 474.057C232.65 467.709 232.65 461.361 232.65 454.82Z" fill="#78797C"/>
<path d="M521.213 1170.46C523.752 1171.72 526.291 1172.99 528.908 1174.3C523.404 1178.83 517.867 1183.31 512.315 1187.77C509.235 1190.27 506.155 1192.77 502.982 1195.34C494.28 1201.24 494.28 1201.24 482.737 1201.24C482.737 1198.7 482.737 1196.16 482.737 1193.54C490.883 1187.6 490.883 1187.6 501.494 1181.28C504.976 1179.16 508.457 1177.04 512.045 1174.86C516.583 1172.68 516.583 1172.68 521.213 1170.46Z" fill="#674D7E"/>
<path d="M736.672 862.655C732.11 875.64 727.917 884.383 717.435 893.435C716.165 887.087 714.896 880.738 713.588 874.198C728.016 862.655 728.016 862.655 736.672 862.655Z" fill="#ECC932"/>
<path d="M690.503 916.52C694.35 928.063 694.35 928.063 692.426 937.922C686.655 947.3 686.655 947.3 672.708 952.35C668.423 953.223 664.137 954.096 659.722 954.995C661.3 953.185 662.877 951.374 664.502 949.509C666.575 947.114 668.648 944.718 670.784 942.25C672.837 939.884 674.891 937.519 677.006 935.081C683.439 927.543 683.439 927.543 690.503 916.52Z" fill="#E0B62F"/>
<path d="M298.057 1208.93C313.651 1213.64 326.697 1219.31 340.38 1228.17C332.685 1232.01 332.685 1232.01 323.517 1229.02C320.035 1227.55 316.554 1226.08 312.967 1224.56C307.714 1222.37 307.714 1222.37 302.356 1220.13C299.668 1218.97 296.98 1217.82 294.21 1216.62C295.48 1214.09 296.749 1211.55 298.057 1208.93Z" fill="#394B54"/>
<path d="M802.08 758.772C804.619 760.042 807.159 761.312 809.775 762.62C807.236 765.159 804.696 767.699 802.08 770.315C807.159 772.854 812.237 775.394 817.47 778.01C804.773 780.549 792.076 783.089 778.995 785.705C786.613 776.817 794.231 767.93 802.08 758.772Z" fill="#C6C552"/>
<path d="M817.47 804.943C818.74 807.482 820.009 810.021 821.318 812.638C823.857 813.907 826.396 815.177 829.013 816.485C821.395 827.912 821.395 827.912 813.623 839.57C807.465 827.256 813.5 817.552 817.47 804.943Z" fill="#CBC54E"/>
</svg>
